<svg xmlns="http://www.w3.org/2000/svg" width="1920" height="460" viewBox="0 0 1920 460" preserveAspectRatio="xMidYMid slice">
<rect width="1920" height="460" fill="#171310"/>
<defs><radialGradient id="wash" cx="0.72" cy="0.5" r="0.62"><stop offset="0" stop-color="#241C17" stop-opacity="0.95"/><stop offset="1" stop-color="#241C17" stop-opacity="0"/></radialGradient></defs><rect width="1920" height="460" fill="url(#wash)"/>
<path d="M798.7 290.4 L798.2 293.6 M798.2 293.6 L797.7 297.4 M797.7 297.4 L797.2 301.2 M797.2 301.2 L796.9 305.0 M796.9 305.0 L796.5 308.8 M796.5 308.8 L796.3 312.6 M796.3 312.6 L796.0 316.4 M796.0 316.4 L795.9 320.2 M795.9 320.2 L795.8 324.0 M795.8 324.0 L795.7 327.8 M795.7 327.8 L795.7 331.6 M795.7 331.6 L795.8 335.4 M795.8 335.4 L795.9 339.2 M795.9 339.2 L796.0 343.0 M796.0 343.0 L796.3 346.8 M796.3 346.8 L796.5 350.6 M796.5 350.6 L796.9 354.4 M796.9 354.4 L797.3 358.2 M797.3 358.2 L797.7 362.0 M797.7 362.0 L798.2 365.8 M798.2 365.8 L798.7 368.7 M803.5 265.7 L803.2 267.0 M803.2 267.0 L802.3 270.8 M802.3 270.8 L801.4 274.6 M801.4 274.6 L800.7 278.4 M800.7 278.4 L800.0 282.2 M800.0 282.2 L799.3 286.0 M799.3 286.0 L798.7 289.8 M798.7 289.8 L798.7 290.4 M798.8 369.6 L798.7 368.7 M798.8 369.6 L799.4 373.4 M799.4 373.4 L800.0 377.2 M800.0 377.2 L800.8 381.0 M800.8 381.0 L801.5 384.8 M801.5 384.8 L802.4 388.6 M802.4 388.6 L803.3 392.4 M803.3 392.4 L803.5 393.1 M808.3 248.3 L807.2 251.8 M807.2 251.8 L806.1 255.6 M806.1 255.6 L805.1 259.4 M805.1 259.4 L804.1 263.2 M804.1 263.2 L803.5 265.7 M804.3 396.2 L803.5 393.1 M804.3 396.2 L805.3 400.0 M813.2 234.2 L812.3 236.6 M812.3 236.6 L810.9 240.4 M810.9 240.4 L809.6 244.2 M809.6 244.2 L808.4 248.0 M808.4 248.0 L808.3 248.3 M818.0 222.1 L816.7 225.2 M816.7 225.2 L815.1 229.0 M815.1 229.0 L813.7 232.8 M813.7 232.8 L813.2 234.2 M822.8 211.3 L821.6 213.8 M821.6 213.8 L819.9 217.6 M819.9 217.6 L818.3 221.4 M818.3 221.4 L818.0 222.1 M827.7 201.6 L827.2 202.4 M827.2 202.4 L825.3 206.2 M825.3 206.2 L823.4 210.0 M823.4 210.0 L822.8 211.3 M832.5 192.6 L831.3 194.8 M831.3 194.8 L829.2 198.6 M829.2 198.6 L827.7 201.6 M837.3 184.3 L835.6 187.2 M835.6 187.2 L833.4 191.0 M833.4 191.0 L832.5 192.6 M842.2 176.6 L840.2 179.6 M840.2 179.6 L837.9 183.4 M837.9 183.4 L837.3 184.3 M847.0 169.3 L845.1 172.0 M845.1 172.0 L842.7 175.8 M842.7 175.8 L842.2 176.6 M851.8 162.4 L850.4 164.4 M850.4 164.4 L847.7 168.2 M847.7 168.2 L847.0 169.3 M856.7 155.9 L856.0 156.8 M856.0 156.8 L853.1 160.6 M853.1 160.6 L851.8 162.4 M861.5 149.6 L858.8 153.0 M858.8 153.0 L856.7 155.9 M866.3 143.7 L864.9 145.4 M864.9 145.4 L861.9 149.2 M861.9 149.2 L861.5 149.6 M871.2 138.0 L868.1 141.6 M868.1 141.6 L866.3 143.7 M876.0 132.5 L874.6 134.0 M874.6 134.0 L871.3 137.8 M871.3 137.8 L871.2 138.0 M880.8 127.2 L878.1 130.2 M878.1 130.2 L876.0 132.5 M885.7 122.1 L885.2 122.6 M885.2 122.6 L881.6 126.4 M881.6 126.4 L880.8 127.2 M890.5 117.2 L888.9 118.8 M888.9 118.8 L885.7 122.1 M895.3 112.5 L892.7 115.0 M892.7 115.0 L890.5 117.2 M900.2 107.9 L896.6 111.2 M896.6 111.2 L895.3 112.5 M905.0 103.4 L904.8 103.6 M904.8 103.6 L900.7 107.4 M900.7 107.4 L900.2 107.9 M909.8 99.0 L909.0 99.8 M909.0 99.8 L905.0 103.4 M914.7 94.8 L913.3 96.0 M913.3 96.0 L909.8 99.0 M919.5 90.7 L917.7 92.2 M917.7 92.2 L914.7 94.8 M924.3 86.7 L922.2 88.4 M922.2 88.4 L919.5 90.7 M929.2 82.8 L926.9 84.6 M926.9 84.6 L924.3 86.7 M934.0 78.9 L931.6 80.8 M931.6 80.8 L929.2 82.8 M938.8 75.2 L936.5 77.0 M936.5 77.0 L934.0 78.9 M943.7 71.5 L941.4 73.2 M941.4 73.2 L938.8 75.2 M948.5 67.9 L946.5 69.4 M946.5 69.4 L943.7 71.5 M953.3 64.4 L951.7 65.6 M951.7 65.6 L948.5 67.9 M958.2 61.0 L957.0 61.8 M957.0 61.8 L953.3 64.4 M963.0 57.6 L962.4 58.0 M962.4 58.0 L958.2 61.0 M967.8 54.2 L963.0 57.6 M972.7 51.0 L967.9 54.2 M967.9 54.2 L967.8 54.2 M977.5 47.7 L973.5 50.4 M973.5 50.4 L972.7 51.0 M982.3 44.5 L979.2 46.6 M979.2 46.6 L977.5 47.7 M987.2 41.4 L985.0 42.8 M985.0 42.8 L982.3 44.5 M992.0 38.3 L991.0 39.0 M991.0 39.0 L987.2 41.4 M996.8 35.3 L992.0 38.3 M1001.7 32.3 L997.0 35.2 M997.0 35.2 L996.8 35.3 M1006.5 29.3 L1003.1 31.4 M1003.1 31.4 L1001.7 32.3 M1011.3 26.4 L1009.3 27.6 M1009.3 27.6 L1006.5 29.3 M1016.2 23.5 L1015.7 23.8 M1015.7 23.8 L1011.3 26.4 M1021.0 20.6 L1016.2 23.5 M1022.1 20.0 L1021.0 20.6" fill="none" stroke="#C4443C" stroke-width="1.0" stroke-linecap="round" opacity="0.16"/>
<path d="M837.3 299.6 L837.1 301.2 M837.1 301.2 L836.7 305.0 M836.7 305.0 L836.3 308.8 M836.3 308.8 L836.0 312.6 M836.0 312.6 L835.8 316.4 M835.8 316.4 L835.7 320.2 M835.7 320.2 L835.6 324.0 M835.6 324.0 L835.5 327.8 M835.5 327.8 L835.5 331.6 M835.5 331.6 L835.6 335.4 M835.6 335.4 L835.8 339.2 M835.8 339.2 L836.0 343.0 M836.0 343.0 L836.3 346.8 M836.3 346.8 L836.6 350.6 M836.6 350.6 L837.1 354.4 M837.1 354.4 L837.3 356.6 M842.2 273.2 L841.8 274.6 M841.8 274.6 L840.9 278.4 M840.9 278.4 L840.1 282.2 M840.1 282.2 L839.4 286.0 M839.4 286.0 L838.7 289.8 M838.7 289.8 L838.1 293.6 M838.1 293.6 L837.6 297.4 M837.6 297.4 L837.3 299.6 M837.5 358.2 L837.3 356.6 M837.5 358.2 L838.1 362.0 M838.1 362.0 L838.7 365.8 M838.7 365.8 L839.3 369.6 M839.3 369.6 L840.1 373.4 M840.1 373.4 L840.9 377.2 M840.9 377.2 L841.8 381.0 M841.8 381.0 L842.2 382.5 M847.0 256.0 L845.9 259.4 M845.9 259.4 L844.8 263.2 M844.8 263.2 L843.7 267.0 M843.7 267.0 L842.7 270.8 M842.7 270.8 L842.2 273.2 M842.7 384.8 L842.2 382.5 M842.7 384.8 L843.7 388.6 M843.7 388.6 L844.8 392.4 M844.8 392.4 L846.0 396.2 M846.0 396.2 L847.0 399.1 M851.8 242.3 L851.1 244.2 M851.1 244.2 L849.7 248.0 M849.7 248.0 L848.3 251.8 M848.3 251.8 L847.1 255.6 M847.1 255.6 L847.0 256.0 M847.3 400.0 L847.0 399.1 M856.7 230.6 L855.7 232.8 M855.7 232.8 L854.1 236.6 M854.1 236.6 L852.5 240.4 M852.5 240.4 L851.8 242.3 M861.5 220.3 L860.9 221.4 M860.9 221.4 L859.1 225.2 M859.1 225.2 L857.4 229.0 M857.4 229.0 L856.7 230.6 M866.3 211.0 L864.8 213.8 M864.8 213.8 L862.8 217.6 M862.8 217.6 L861.5 220.3 M871.2 202.5 L869.0 206.2 M869.0 206.2 L866.9 210.0 M866.9 210.0 L866.3 211.0 M876.0 194.6 L875.9 194.8 M875.9 194.8 L873.5 198.6 M873.5 198.6 L871.2 202.4 M871.2 202.4 L871.2 202.5 M880.8 187.3 L878.3 191.0 M878.3 191.0 L876.0 194.6 M885.7 180.4 L883.5 183.4 M883.5 183.4 L880.9 187.2 M880.9 187.2 L880.8 187.3 M890.5 173.8 L889.0 175.8 M889.0 175.8 L886.2 179.6 M886.2 179.6 L885.7 180.4 M895.3 167.7 L894.9 168.2 M894.9 168.2 L891.9 172.0 M891.9 172.0 L890.5 173.8 M900.2 161.8 L897.9 164.4 M897.9 164.4 L895.3 167.7 M905.0 156.1 L904.4 156.8 M904.4 156.8 L901.1 160.6 M901.1 160.6 L900.2 161.8 M909.8 150.7 L907.7 153.0 M907.7 153.0 L905.0 156.1 M914.7 145.5 L911.2 149.2 M911.2 149.2 L909.8 150.7 M919.5 140.5 L918.4 141.6 M918.4 141.6 L914.8 145.4 M914.8 145.4 L914.7 145.5 M924.3 135.7 L922.2 137.8 M922.2 137.8 L919.5 140.5 M929.2 131.0 L926.1 134.0 M926.1 134.0 L924.3 135.7 M934.0 126.5 L930.1 130.2 M930.1 130.2 L929.2 131.0 M938.8 122.2 L938.3 122.6 M938.3 122.6 L934.1 126.4 M934.1 126.4 L934.0 126.5 M943.7 117.9 L942.6 118.8 M942.6 118.8 L938.8 122.2 M948.5 113.8 L947.0 115.0 M947.0 115.0 L943.7 117.9 M953.3 109.7 L951.6 111.2 M951.6 111.2 L948.5 113.8 M958.2 105.8 L956.2 107.4 M956.2 107.4 L953.3 109.7 M963.0 102.0 L961.0 103.6 M961.0 103.6 L958.2 105.8 M967.8 98.3 L965.8 99.8 M965.8 99.8 L963.0 102.0 M972.7 94.6 L970.8 96.0 M970.8 96.0 L967.8 98.3 M977.5 91.0 L975.9 92.2 M975.9 92.2 L972.7 94.6 M982.3 87.5 L981.1 88.4 M981.1 88.4 L977.5 91.0 M987.2 84.1 L986.4 84.6 M986.4 84.6 L982.3 87.5 M992.0 80.7 L991.9 80.8 M991.9 80.8 L987.2 84.1 M996.8 77.4 L992.0 80.7 M1001.7 74.1 L997.4 77.0 M997.4 77.0 L996.8 77.4 M1006.5 70.9 L1003.1 73.2 M1003.1 73.2 L1001.7 74.1 M1011.3 67.8 L1008.8 69.4 M1008.8 69.4 L1006.5 70.9 M1016.2 64.7 L1014.7 65.6 M1014.7 65.6 L1011.3 67.8 M1021.0 61.6 L1020.7 61.8 M1020.7 61.8 L1016.2 64.7 M1025.8 58.6 L1021.0 61.6 M1030.7 55.6 L1026.8 58.0 M1026.8 58.0 L1025.8 58.6 M1035.5 52.6 L1032.9 54.2 M1032.9 54.2 L1030.7 55.6 M1040.3 49.7 L1039.2 50.4 M1039.2 50.4 L1035.5 52.6 M1045.2 46.9 L1040.3 49.7 M1050.0 44.0 L1045.6 46.6 M1045.6 46.6 L1045.2 46.9 M1054.8 41.2 L1052.1 42.8 M1052.1 42.8 L1050.0 44.0 M1059.7 38.5 L1058.7 39.0 M1058.7 39.0 L1054.8 41.2 M1064.5 35.7 L1059.7 38.5 M1069.3 33.0 L1065.4 35.2 M1065.4 35.2 L1064.5 35.7 M1074.2 30.3 L1072.2 31.4 M1072.2 31.4 L1069.3 33.0 M1079.0 27.6 L1074.2 30.3 M1083.8 25.0 L1079.0 27.6 M1079.0 27.6 L1079.0 27.6 M1088.7 22.3 L1086.0 23.8 M1086.0 23.8 L1083.8 25.0 M1093.0 20.0 L1088.7 22.3" fill="none" stroke="#C4443C" stroke-width="1.0" stroke-linecap="round" opacity="0.13"/>
<path d="M871.2 298.2 L870.8 301.2 M870.8 301.2 L870.3 305.0 M870.3 305.0 L869.9 308.8 M869.9 308.8 L869.6 312.6 M869.6 312.6 L869.4 316.4 M869.4 316.4 L869.3 320.2 M869.3 320.2 L869.2 324.0 M869.2 324.0 L869.2 327.8 M869.2 327.8 L869.2 331.6 M869.2 331.6 L869.4 335.4 M869.4 335.4 L869.6 339.2 M869.6 339.2 L869.9 343.0 M869.9 343.0 L870.2 346.8 M870.2 346.8 L870.7 350.6 M870.7 350.6 L871.2 354.3 M876.0 274.2 L875.9 274.6 M875.9 274.6 L874.9 278.4 M874.9 278.4 L874.0 282.2 M874.0 282.2 L873.2 286.0 M873.2 286.0 L872.5 289.8 M872.5 289.8 L871.9 293.6 M871.9 293.6 L871.3 297.4 M871.3 297.4 L871.2 298.2 M871.2 354.4 L871.2 354.3 M871.2 354.4 L871.8 358.2 M871.8 358.2 L872.4 362.0 M872.4 362.0 L873.1 365.8 M873.1 365.8 L874.0 369.6 M874.0 369.6 L874.9 373.4 M874.9 373.4 L875.9 377.2 M875.9 377.2 L876.0 377.6 M880.8 258.2 L880.4 259.4 M880.4 259.4 L879.2 263.2 M879.2 263.2 L878.0 267.0 M878.0 267.0 L876.9 270.8 M876.9 270.8 L876.0 274.2 M876.9 381.0 L876.0 377.6 M876.9 381.0 L878.1 384.8 M878.1 384.8 L879.3 388.6 M879.3 388.6 L880.7 392.4 M880.7 392.4 L880.8 392.9 M885.7 245.5 L884.6 248.0 M884.6 248.0 L883.1 251.8 M883.1 251.8 L881.7 255.6 M881.7 255.6 L880.8 258.2 M882.1 396.2 L880.8 392.9 M882.1 396.2 L883.6 400.0 M890.5 234.6 L889.5 236.6 M889.5 236.6 L887.8 240.4 M887.8 240.4 L886.2 244.2 M886.2 244.2 L885.7 245.5 M895.3 225.0 L895.2 225.2 M895.2 225.2 L893.2 229.0 M893.2 229.0 L891.3 232.8 M891.3 232.8 L890.5 234.6 M900.2 216.3 L899.4 217.6 M899.4 217.6 L897.2 221.4 M897.2 221.4 L895.3 225.0 M905.0 208.3 L903.9 210.0 M903.9 210.0 L901.6 213.8 M901.6 213.8 L900.2 216.3 M909.8 200.9 L908.8 202.4 M908.8 202.4 L906.3 206.2 M906.3 206.2 L905.0 208.3 M914.7 194.0 L914.1 194.8 M914.1 194.8 L911.4 198.6 M911.4 198.6 L909.8 200.9 M919.5 187.5 L916.8 191.0 M916.8 191.0 L914.7 194.0 M924.3 181.3 L922.7 183.4 M922.7 183.4 L919.7 187.2 M919.7 187.2 L919.5 187.5 M929.2 175.5 L928.9 175.8 M928.9 175.8 L925.7 179.6 M925.7 179.6 L924.3 181.3 M934.0 169.9 L932.2 172.0 M932.2 172.0 L929.2 175.5 M938.8 164.6 L935.5 168.2 M935.5 168.2 L934.0 169.9 M943.7 159.5 L942.6 160.6 M942.6 160.6 L939.0 164.4 M939.0 164.4 L938.8 164.6 M948.5 154.6 L946.3 156.8 M946.3 156.8 L943.7 159.5 M953.3 149.9 L950.1 153.0 M950.1 153.0 L948.5 154.6 M958.2 145.3 L958.1 145.4 M958.1 145.4 L954.0 149.2 M954.0 149.2 L953.3 149.9 M963.0 140.9 L962.2 141.6 M962.2 141.6 L958.2 145.3 M967.8 136.6 L966.5 137.8 M966.5 137.8 L963.0 140.9 M972.7 132.4 L970.8 134.0 M970.8 134.0 L967.8 136.6 M977.5 128.4 L975.3 130.2 M975.3 130.2 L972.7 132.4 M982.3 124.5 L979.9 126.4 M979.9 126.4 L977.5 128.4 M987.2 120.6 L984.7 122.6 M984.7 122.6 L982.3 124.5 M992.0 116.9 L989.5 118.8 M989.5 118.8 L987.2 120.6 M996.8 113.2 L994.5 115.0 M994.5 115.0 L992.0 116.9 M1001.7 109.6 L999.5 111.2 M999.5 111.2 L996.8 113.2 M1006.5 106.1 L1004.7 107.4 M1004.7 107.4 L1001.7 109.6 M1011.3 102.7 L1010.1 103.6 M1010.1 103.6 L1006.5 106.1 M1016.2 99.3 L1015.5 99.8 M1015.5 99.8 L1011.3 102.7 M1021.0 96.0 L1016.2 99.3 M1025.8 92.8 L1021.1 96.0 M1021.1 96.0 L1021.0 96.0 M1030.7 89.6 L1026.7 92.2 M1026.7 92.2 L1025.8 92.8 M1035.5 86.5 L1032.5 88.4 M1032.5 88.4 L1030.7 89.6 M1040.3 83.4 L1038.4 84.6 M1038.4 84.6 L1035.5 86.5 M1045.2 80.3 L1044.4 80.8 M1044.4 80.8 L1040.3 83.4 M1050.0 77.3 L1045.2 80.3 M1054.8 74.4 L1050.5 77.0 M1050.5 77.0 L1050.0 77.3 M1059.7 71.4 L1056.8 73.2 M1056.8 73.2 L1054.8 74.4 M1064.5 68.6 L1063.1 69.4 M1063.1 69.4 L1059.7 71.4 M1069.3 65.7 L1064.5 68.6 M1074.2 62.9 L1069.6 65.6 M1069.6 65.6 L1069.3 65.7 M1079.0 60.1 L1076.1 61.8 M1076.1 61.8 L1074.2 62.9 M1083.8 57.4 L1082.8 58.0 M1082.8 58.0 L1079.0 60.1 M1088.7 54.7 L1083.8 57.4 M1093.5 52.0 L1089.5 54.2 M1089.5 54.2 L1088.7 54.7 M1098.3 49.3 L1096.3 50.4 M1096.3 50.4 L1093.5 52.0 M1103.2 46.7 L1098.3 49.3 M1108.0 44.0 L1103.3 46.6 M1103.3 46.6 L1103.2 46.7 M1112.8 41.4 L1110.3 42.8 M1110.3 42.8 L1108.0 44.0 M1117.7 38.9 L1117.4 39.0 M1117.4 39.0 L1112.8 41.4 M1122.5 36.3 L1117.7 38.9 M1127.3 33.8 L1124.6 35.2 M1124.6 35.2 L1122.5 36.3 M1132.2 31.3 L1131.9 31.4 M1131.9 31.4 L1127.3 33.8 M1137.0 28.7 L1132.2 31.3 M1141.8 26.2 L1139.2 27.6 M1139.2 27.6 L1137.0 28.7 M1146.7 23.8 L1146.6 23.8 M1146.6 23.8 L1141.8 26.2 M1151.5 21.3 L1146.7 23.8 M1154.6 20.0 L1151.5 21.3 M1657.1 20.0 L1659.0 21.0 M1663.8 23.3 L1659.0 21.0 M1664.9 23.8 L1663.8 23.3 M1664.9 23.8 L1668.7 25.5 M1673.5 27.5 L1668.7 25.5 M1673.8 27.6 L1673.5 27.5 M1673.8 27.6 L1678.3 29.3 M1683.2 30.8 L1678.3 29.3 M1685.1 31.4 L1683.2 30.8 M1685.1 31.4 L1688.0 32.2 M1692.8 33.3 L1688.0 32.2 M1697.7 34.3 L1692.8 33.3 M1702.5 35.0 L1697.7 34.3 M1704.6 35.2 L1702.5 35.0 M1704.6 35.2 L1707.3 35.5 M1712.2 35.8 L1707.3 35.5 M1717.0 35.9 L1712.2 35.8 M1721.8 35.8 L1717.0 35.9 M1726.7 35.5 L1721.8 35.8 M1731.5 35.1 L1730.3 35.2 M1730.3 35.2 L1726.7 35.5 M1736.3 34.5 L1731.5 35.1 M1741.2 33.8 L1736.3 34.5 M1746.0 32.9 L1741.2 33.8 M1750.8 31.9 L1746.0 32.9 M1755.7 30.9 L1753.3 31.4 M1753.3 31.4 L1750.8 31.9 M1760.5 29.7 L1755.7 30.9 M1765.3 28.5 L1760.5 29.7 M1770.2 27.2 L1768.6 27.6 M1768.6 27.6 L1765.3 28.5 M1775.0 25.8 L1770.2 27.2 M1779.8 24.4 L1775.0 25.8 M1784.7 22.9 L1781.8 23.8 M1781.8 23.8 L1779.8 24.4 M1789.5 21.4 L1784.7 22.9 M1794.3 20.0 L1789.5 21.4" fill="none" stroke="#C4443C" stroke-width="1.0" stroke-linecap="round" opacity="0.1"/>
<g fill="#C4443C">
<circle cx="988" cy="31" r="1.3" opacity="0.11"/>
<circle cx="1668" cy="114" r="0.7" opacity="0.22"/>
<circle cx="889" cy="324" r="1.7" opacity="0.15"/>
<circle cx="1373" cy="153" r="0.9" opacity="0.10"/>
<circle cx="1590" cy="74" r="1.6" opacity="0.12"/>
<circle cx="1826" cy="350" r="1.1" opacity="0.15"/>
<circle cx="1171" cy="388" r="0.7" opacity="0.11"/>
<circle cx="1576" cy="387" r="1.2" opacity="0.17"/>
<circle cx="1379" cy="254" r="0.9" opacity="0.14"/>
<circle cx="1074" cy="67" r="1.6" opacity="0.19"/>
<circle cx="1796" cy="375" r="1.8" opacity="0.22"/>
<circle cx="1420" cy="348" r="1.1" opacity="0.13"/>
<circle cx="1769" cy="88" r="1.6" opacity="0.19"/>
<circle cx="1289" cy="331" r="1.0" opacity="0.13"/>
<circle cx="1212" cy="91" r="1.1" opacity="0.21"/>
<circle cx="1900" cy="299" r="1.0" opacity="0.22"/>
<circle cx="1341" cy="292" r="0.9" opacity="0.20"/>
<circle cx="1076" cy="222" r="1.5" opacity="0.10"/>
<circle cx="1536" cy="373" r="1.4" opacity="0.18"/>
<circle cx="1739" cy="240" r="1.1" opacity="0.22"/>
<circle cx="1805" cy="78" r="0.8" opacity="0.10"/>
<circle cx="1096" cy="208" r="0.9" opacity="0.12"/>
<circle cx="1645" cy="315" r="1.2" opacity="0.11"/>
<circle cx="1009" cy="281" r="0.7" opacity="0.15"/>
<circle cx="1077" cy="354" r="1.3" opacity="0.17"/>
<circle cx="1892" cy="158" r="1.8" opacity="0.11"/>
<circle cx="1331" cy="170" r="0.9" opacity="0.11"/>
<circle cx="1697" cy="291" r="1.0" opacity="0.15"/>
<circle cx="1907" cy="32" r="1.0" opacity="0.15"/>
<circle cx="877" cy="229" r="1.0" opacity="0.21"/>
<circle cx="1606" cy="196" r="1.8" opacity="0.18"/>
<circle cx="887" cy="275" r="1.4" opacity="0.13"/>
<circle cx="1162" cy="369" r="1.2" opacity="0.17"/>
<circle cx="1042" cy="93" r="1.0" opacity="0.12"/>
<circle cx="1840" cy="284" r="1.3" opacity="0.10"/>
<circle cx="1442" cy="282" r="0.7" opacity="0.17"/>
<circle cx="1791" cy="163" r="1.6" opacity="0.20"/>
<circle cx="1346" cy="48" r="1.1" opacity="0.17"/>
<circle cx="1829" cy="348" r="1.3" opacity="0.11"/>
<circle cx="1440" cy="253" r="1.6" opacity="0.14"/>
<circle cx="1029" cy="157" r="1.4" opacity="0.21"/>
<circle cx="1527" cy="98" r="0.8" opacity="0.10"/>
<circle cx="1588" cy="219" r="1.6" opacity="0.13"/>
<circle cx="1669" cy="34" r="1.4" opacity="0.17"/>
<circle cx="1622" cy="263" r="1.7" opacity="0.16"/>
<circle cx="1777" cy="160" r="1.1" opacity="0.12"/>
<circle cx="1359" cy="323" r="0.8" opacity="0.10"/>
<circle cx="1216" cy="239" r="1.4" opacity="0.13"/>
<circle cx="1792" cy="215" r="1.0" opacity="0.15"/>
<circle cx="1494" cy="121" r="1.1" opacity="0.16"/>
<circle cx="1912" cy="166" r="0.7" opacity="0.18"/>
<circle cx="1691" cy="204" r="1.1" opacity="0.20"/>
<circle cx="1310" cy="196" r="1.4" opacity="0.17"/>
<circle cx="1667" cy="364" r="1.6" opacity="0.21"/>
<circle cx="878" cy="329" r="1.5" opacity="0.14"/>
<circle cx="1109" cy="264" r="0.9" opacity="0.12"/>
<circle cx="973" cy="314" r="1.4" opacity="0.15"/>
<circle cx="806" cy="206" r="1.6" opacity="0.14"/>
<circle cx="1101" cy="108" r="0.9" opacity="0.12"/>
<circle cx="1461" cy="335" r="0.8" opacity="0.16"/>
<circle cx="1641" cy="239" r="1.7" opacity="0.11"/>
<circle cx="1347" cy="89" r="1.4" opacity="0.18"/>
<circle cx="1175" cy="318" r="1.0" opacity="0.11"/>
<circle cx="882" cy="141" r="1.4" opacity="0.15"/>
<circle cx="1278" cy="230" r="0.9" opacity="0.16"/>
<circle cx="1071" cy="149" r="1.7" opacity="0.15"/>
<circle cx="944" cy="41" r="1.7" opacity="0.14"/>
<circle cx="1715" cy="279" r="1.1" opacity="0.21"/>
<circle cx="1225" cy="269" r="0.8" opacity="0.15"/>
<circle cx="867" cy="31" r="1.2" opacity="0.19"/>
<circle cx="759" cy="259" r="1.3" opacity="0.14"/>
<circle cx="1244" cy="286" r="1.1" opacity="0.19"/>
<circle cx="1719" cy="383" r="1.4" opacity="0.14"/>
<circle cx="1556" cy="335" r="1.1" opacity="0.21"/>
<circle cx="1040" cy="312" r="1.1" opacity="0.12"/>
<circle cx="1122" cy="107" r="1.6" opacity="0.12"/>
<circle cx="1733" cy="254" r="1.5" opacity="0.11"/>
<circle cx="1833" cy="141" r="0.9" opacity="0.15"/>
<circle cx="1590" cy="118" r="1.0" opacity="0.15"/>
<circle cx="1767" cy="389" r="1.8" opacity="0.21"/>
<circle cx="1774" cy="358" r="1.5" opacity="0.16"/>
<circle cx="738" cy="141" r="1.4" opacity="0.18"/>
<circle cx="1238" cy="237" r="1.4" opacity="0.15"/>
<circle cx="1238" cy="300" r="1.0" opacity="0.19"/>
<circle cx="842" cy="222" r="0.8" opacity="0.12"/>
<circle cx="993" cy="153" r="1.6" opacity="0.18"/>
<circle cx="1485" cy="256" r="1.0" opacity="0.22"/>
<circle cx="1653" cy="115" r="1.2" opacity="0.18"/>
<circle cx="1226" cy="35" r="1.1" opacity="0.12"/>
<circle cx="1468" cy="339" r="1.3" opacity="0.21"/>
<circle cx="1116" cy="184" r="1.4" opacity="0.21"/>
<circle cx="986" cy="97" r="1.6" opacity="0.13"/>
<circle cx="1580" cy="273" r="1.8" opacity="0.20"/>
<circle cx="1266" cy="45" r="0.9" opacity="0.17"/>
<circle cx="1485" cy="191" r="1.8" opacity="0.14"/>
<circle cx="1370" cy="316" r="0.8" opacity="0.19"/>
<circle cx="1340" cy="120" r="1.2" opacity="0.14"/>
<circle cx="1024" cy="200" r="1.6" opacity="0.15"/>
<circle cx="1804" cy="98" r="1.6" opacity="0.19"/>
<circle cx="1807" cy="371" r="1.6" opacity="0.22"/>
<circle cx="1102" cy="112" r="1.6" opacity="0.12"/>
<circle cx="1367" cy="365" r="1.4" opacity="0.16"/>
<circle cx="1879" cy="215" r="1.7" opacity="0.19"/>
<circle cx="1882" cy="377" r="1.2" opacity="0.13"/>
<circle cx="1037" cy="104" r="1.5" opacity="0.11"/>
<circle cx="1392" cy="364" r="0.8" opacity="0.17"/>
<circle cx="1539" cy="330" r="1.2" opacity="0.15"/>
<circle cx="1029" cy="256" r="1.5" opacity="0.14"/>
<circle cx="906" cy="43" r="1.6" opacity="0.15"/>
<circle cx="1669" cy="155" r="1.6" opacity="0.13"/>
<circle cx="997" cy="270" r="0.9" opacity="0.16"/>
<circle cx="1016" cy="360" r="1.0" opacity="0.10"/>
<circle cx="1485" cy="267" r="1.7" opacity="0.18"/>
<circle cx="1083" cy="341" r="1.1" opacity="0.15"/>
<circle cx="1865" cy="138" r="0.9" opacity="0.20"/>
<circle cx="1371" cy="346" r="1.3" opacity="0.18"/>
<circle cx="1084" cy="86" r="1.4" opacity="0.17"/>
<circle cx="1894" cy="183" r="1.7" opacity="0.13"/>
<circle cx="1522" cy="54" r="1.5" opacity="0.14"/>
<circle cx="1372" cy="388" r="1.8" opacity="0.11"/>
<circle cx="1335" cy="314" r="1.4" opacity="0.20"/>
<circle cx="700" cy="139" r="1.5" opacity="0.12"/>
<circle cx="1577" cy="56" r="1.5" opacity="0.21"/>
<circle cx="1459" cy="58" r="0.8" opacity="0.21"/>
<circle cx="1298" cy="250" r="1.5" opacity="0.21"/>
<circle cx="1121" cy="311" r="1.4" opacity="0.18"/>
<circle cx="1907" cy="313" r="0.9" opacity="0.14"/>
<circle cx="1183" cy="288" r="1.3" opacity="0.15"/>
<circle cx="1072" cy="261" r="1.8" opacity="0.12"/>
<circle cx="1797" cy="259" r="0.8" opacity="0.18"/>
<circle cx="1769" cy="337" r="1.6" opacity="0.12"/>
<circle cx="1124" cy="190" r="1.1" opacity="0.12"/>
<circle cx="1432" cy="191" r="1.2" opacity="0.17"/>
<circle cx="1230" cy="133" r="1.0" opacity="0.20"/>
<circle cx="1285" cy="147" r="0.8" opacity="0.14"/>
<circle cx="1231" cy="306" r="1.2" opacity="0.18"/>
<circle cx="1038" cy="228" r="1.4" opacity="0.16"/>
<circle cx="1243" cy="162" r="1.7" opacity="0.21"/>
<circle cx="1682" cy="138" r="0.9" opacity="0.18"/>
<circle cx="1557" cy="54" r="1.8" opacity="0.14"/>
<circle cx="751" cy="198" r="1.6" opacity="0.16"/>
<circle cx="1447" cy="364" r="0.9" opacity="0.19"/>
<circle cx="1441" cy="188" r="1.4" opacity="0.21"/>
<circle cx="1888" cy="189" r="0.9" opacity="0.21"/>
<circle cx="1747" cy="206" r="1.3" opacity="0.20"/>
<circle cx="1201" cy="327" r="1.1" opacity="0.14"/>
<circle cx="1421" cy="306" r="1.1" opacity="0.17"/>
<circle cx="1053" cy="127" r="1.3" opacity="0.22"/>
<circle cx="1821" cy="280" r="0.8" opacity="0.16"/>
<circle cx="834" cy="147" r="1.3" opacity="0.16"/>
<circle cx="1047" cy="110" r="0.7" opacity="0.12"/>
<circle cx="1256" cy="242" r="1.8" opacity="0.20"/>
<circle cx="1214" cy="297" r="1.7" opacity="0.13"/>
<circle cx="1879" cy="191" r="1.2" opacity="0.22"/>
<circle cx="841" cy="247" r="0.8" opacity="0.16"/>
<circle cx="980" cy="361" r="1.6" opacity="0.13"/>
<circle cx="1797" cy="249" r="0.9" opacity="0.20"/>
<circle cx="1113" cy="247" r="1.6" opacity="0.17"/>
<circle cx="948" cy="151" r="1.1" opacity="0.12"/>
<circle cx="1066" cy="316" r="1.7" opacity="0.21"/>
<circle cx="1641" cy="116" r="1.2" opacity="0.17"/>
<circle cx="1830" cy="37" r="1.6" opacity="0.10"/>
<circle cx="1704" cy="179" r="1.6" opacity="0.13"/>
<circle cx="1710" cy="154" r="0.8" opacity="0.20"/>
<circle cx="759" cy="96" r="1.2" opacity="0.22"/>
<circle cx="1556" cy="158" r="1.5" opacity="0.21"/>
<circle cx="1840" cy="51" r="1.4" opacity="0.19"/>
<circle cx="822" cy="57" r="1.7" opacity="0.11"/>
<circle cx="1280" cy="326" r="1.1" opacity="0.20"/>
<circle cx="1371" cy="346" r="1.5" opacity="0.12"/>
<circle cx="1243" cy="292" r="0.9" opacity="0.20"/>
<circle cx="1136" cy="359" r="1.6" opacity="0.11"/>
<circle cx="1703" cy="110" r="1.4" opacity="0.12"/>
<circle cx="1849" cy="59" r="1.8" opacity="0.22"/>
<circle cx="818" cy="67" r="1.3" opacity="0.14"/>
<circle cx="726" cy="126" r="1.5" opacity="0.13"/>
<circle cx="1669" cy="191" r="0.8" opacity="0.15"/>
<circle cx="1812" cy="334" r="1.2" opacity="0.12"/>
<circle cx="1357" cy="325" r="1.0" opacity="0.11"/>
<circle cx="1518" cy="360" r="1.2" opacity="0.18"/>
<circle cx="1175" cy="345" r="1.7" opacity="0.20"/>
<circle cx="1376" cy="67" r="1.8" opacity="0.13"/>
<circle cx="1851" cy="217" r="1.2" opacity="0.17"/>
<circle cx="1568" cy="87" r="1.6" opacity="0.17"/>
<circle cx="1680" cy="201" r="0.9" opacity="0.11"/>
<circle cx="897" cy="94" r="1.2" opacity="0.20"/>
<circle cx="1915" cy="283" r="1.5" opacity="0.20"/>
<circle cx="1284" cy="284" r="1.6" opacity="0.17"/>
<circle cx="1914" cy="376" r="1.2" opacity="0.15"/>
<circle cx="1908" cy="103" r="0.8" opacity="0.18"/>
<circle cx="1837" cy="220" r="1.5" opacity="0.13"/>
<circle cx="1472" cy="178" r="0.9" opacity="0.17"/>
<circle cx="1239" cy="38" r="1.1" opacity="0.11"/>
<circle cx="1723" cy="245" r="1.4" opacity="0.13"/>
<circle cx="981" cy="148" r="0.8" opacity="0.22"/>
<circle cx="1800" cy="66" r="1.3" opacity="0.16"/>
<circle cx="1491" cy="61" r="1.5" opacity="0.17"/>
<circle cx="1086" cy="33" r="1.7" opacity="0.13"/>
<circle cx="787" cy="135" r="1.3" opacity="0.11"/>
<circle cx="1428" cy="117" r="1.5" opacity="0.13"/>
<circle cx="1708" cy="98" r="1.7" opacity="0.18"/>
<circle cx="1037" cy="162" r="1.5" opacity="0.14"/>
<circle cx="1232" cy="48" r="0.9" opacity="0.11"/>
<circle cx="1229" cy="240" r="1.3" opacity="0.13"/>
<circle cx="1743" cy="316" r="1.3" opacity="0.14"/>
<circle cx="831" cy="357" r="0.8" opacity="0.15"/>
<circle cx="893" cy="151" r="1.1" opacity="0.21"/>
<circle cx="1442" cy="380" r="0.8" opacity="0.11"/>
<circle cx="877" cy="201" r="1.5" opacity="0.12"/>
<circle cx="1622" cy="238" r="0.8" opacity="0.20"/>
<circle cx="1529" cy="124" r="1.4" opacity="0.21"/>
<circle cx="1018" cy="324" r="1.6" opacity="0.11"/>
<circle cx="1432" cy="244" r="0.9" opacity="0.16"/>
<circle cx="820" cy="233" r="1.2" opacity="0.16"/>
<circle cx="1642" cy="357" r="1.7" opacity="0.21"/>
<circle cx="955" cy="246" r="1.4" opacity="0.17"/>
<circle cx="760" cy="257" r="1.6" opacity="0.11"/>
<circle cx="1460" cy="229" r="0.8" opacity="0.16"/>
<circle cx="1176" cy="86" r="1.0" opacity="0.20"/>
<circle cx="867" cy="302" r="1.6" opacity="0.19"/>
<circle cx="910" cy="127" r="0.8" opacity="0.20"/>
<circle cx="1730" cy="294" r="1.7" opacity="0.17"/>
<circle cx="1376" cy="38" r="0.9" opacity="0.18"/>
<circle cx="1875" cy="256" r="1.6" opacity="0.11"/>
<circle cx="1621" cy="385" r="1.4" opacity="0.15"/>
<circle cx="1616" cy="224" r="1.6" opacity="0.21"/>
<circle cx="1053" cy="194" r="1.2" opacity="0.20"/>
<circle cx="1388" cy="368" r="1.1" opacity="0.12"/>
<circle cx="1579" cy="195" r="1.1" opacity="0.16"/>
<circle cx="1554" cy="164" r="1.6" opacity="0.16"/>
<circle cx="1538" cy="358" r="1.6" opacity="0.10"/>
<circle cx="1511" cy="39" r="1.2" opacity="0.11"/>
<circle cx="1077" cy="131" r="0.9" opacity="0.14"/>
<circle cx="1507" cy="336" r="1.6" opacity="0.19"/>
<circle cx="1512" cy="375" r="1.2" opacity="0.22"/>
<circle cx="1069" cy="154" r="1.1" opacity="0.15"/>
<circle cx="1834" cy="156" r="1.7" opacity="0.19"/>
<circle cx="1211" cy="96" r="1.5" opacity="0.16"/>
<circle cx="1518" cy="260" r="1.4" opacity="0.21"/>
<circle cx="1054" cy="363" r="1.3" opacity="0.19"/>
<circle cx="1441" cy="303" r="1.4" opacity="0.13"/>
<circle cx="796" cy="58" r="1.1" opacity="0.12"/>
<circle cx="1653" cy="277" r="0.9" opacity="0.15"/>
<circle cx="1147" cy="246" r="1.5" opacity="0.18"/>
<circle cx="1206" cy="32" r="1.1" opacity="0.13"/>
<circle cx="1784" cy="364" r="1.2" opacity="0.16"/>
<circle cx="1434" cy="292" r="0.7" opacity="0.14"/>
<circle cx="1106" cy="195" r="1.6" opacity="0.14"/>
<circle cx="1027" cy="338" r="0.9" opacity="0.21"/>
<circle cx="1513" cy="102" r="1.4" opacity="0.20"/>
<circle cx="1349" cy="39" r="1.3" opacity="0.18"/>
<circle cx="1031" cy="378" r="1.7" opacity="0.21"/>
<circle cx="1831" cy="303" r="1.2" opacity="0.12"/>
<circle cx="1048" cy="305" r="1.8" opacity="0.18"/>
<circle cx="1059" cy="199" r="0.9" opacity="0.22"/>
<circle cx="1161" cy="299" r="0.8" opacity="0.18"/>
<circle cx="1232" cy="318" r="1.2" opacity="0.17"/>
<circle cx="970" cy="288" r="0.8" opacity="0.12"/>
<circle cx="715" cy="175" r="1.0" opacity="0.11"/>
<circle cx="1107" cy="187" r="1.2" opacity="0.13"/>
<circle cx="1093" cy="40" r="1.7" opacity="0.14"/>
<circle cx="1875" cy="118" r="1.7" opacity="0.15"/>
<circle cx="1527" cy="309" r="0.9" opacity="0.10"/>
<circle cx="751" cy="273" r="1.3" opacity="0.19"/>
<circle cx="1125" cy="312" r="0.9" opacity="0.15"/>
<circle cx="1146" cy="325" r="1.1" opacity="0.19"/>
<circle cx="1265" cy="152" r="1.1" opacity="0.16"/>
<circle cx="1308" cy="303" r="1.0" opacity="0.18"/>
<circle cx="1804" cy="203" r="1.0" opacity="0.16"/>
<circle cx="1781" cy="145" r="1.6" opacity="0.12"/>
<circle cx="1247" cy="378" r="1.2" opacity="0.15"/>
<circle cx="1286" cy="307" r="1.2" opacity="0.15"/>
<circle cx="1871" cy="338" r="1.1" opacity="0.22"/>
<circle cx="715" cy="281" r="1.0" opacity="0.18"/>
<circle cx="1525" cy="259" r="1.1" opacity="0.20"/>
<circle cx="1815" cy="242" r="1.1" opacity="0.18"/>
<circle cx="1532" cy="252" r="0.9" opacity="0.12"/>
<circle cx="1841" cy="134" r="1.3" opacity="0.10"/>
<circle cx="1092" cy="101" r="1.7" opacity="0.12"/>
<circle cx="1094" cy="254" r="1.0" opacity="0.17"/>
<circle cx="995" cy="104" r="0.8" opacity="0.19"/>
<circle cx="1104" cy="31" r="1.6" opacity="0.18"/>
<circle cx="1646" cy="126" r="1.1" opacity="0.15"/>
<circle cx="1045" cy="165" r="1.2" opacity="0.16"/>
<circle cx="1478" cy="308" r="0.8" opacity="0.16"/>
<circle cx="1061" cy="356" r="1.6" opacity="0.18"/>
<circle cx="1061" cy="245" r="1.0" opacity="0.18"/>
<circle cx="1085" cy="159" r="0.8" opacity="0.11"/>
<circle cx="1830" cy="114" r="1.5" opacity="0.18"/>
<circle cx="1628" cy="165" r="1.7" opacity="0.15"/>
<circle cx="1415" cy="102" r="1.4" opacity="0.11"/>
<circle cx="1154" cy="317" r="0.7" opacity="0.13"/>
<circle cx="1714" cy="303" r="1.3" opacity="0.20"/>
<circle cx="952" cy="158" r="1.2" opacity="0.14"/>
<circle cx="1403" cy="242" r="1.2" opacity="0.12"/>
<circle cx="1489" cy="146" r="1.7" opacity="0.15"/>
<circle cx="1730" cy="123" r="0.9" opacity="0.16"/>
<circle cx="1758" cy="198" r="1.3" opacity="0.19"/>
<circle cx="1829" cy="230" r="1.3" opacity="0.16"/>
<circle cx="922" cy="280" r="1.7" opacity="0.12"/>
<circle cx="1494" cy="70" r="0.9" opacity="0.11"/>
<circle cx="1168" cy="74" r="1.6" opacity="0.18"/>
<circle cx="1045" cy="73" r="1.0" opacity="0.11"/>
<circle cx="1713" cy="50" r="0.8" opacity="0.16"/>
<circle cx="1766" cy="337" r="1.6" opacity="0.15"/>
<circle cx="1337" cy="133" r="1.4" opacity="0.15"/>
<circle cx="942" cy="151" r="1.1" opacity="0.21"/>
<circle cx="1382" cy="127" r="1.3" opacity="0.12"/>
<circle cx="1363" cy="128" r="0.9" opacity="0.14"/>
<circle cx="1576" cy="48" r="1.3" opacity="0.20"/>
<circle cx="1104" cy="68" r="1.1" opacity="0.15"/>
<circle cx="1552" cy="66" r="1.5" opacity="0.20"/>
<circle cx="1011" cy="209" r="1.7" opacity="0.13"/>
<circle cx="1806" cy="351" r="0.9" opacity="0.13"/>
<circle cx="1832" cy="50" r="1.0" opacity="0.14"/>
<circle cx="1495" cy="33" r="1.1" opacity="0.12"/>
<circle cx="1385" cy="190" r="1.4" opacity="0.14"/>
<circle cx="1539" cy="280" r="1.4" opacity="0.10"/>
<circle cx="1488" cy="368" r="1.3" opacity="0.21"/>
<circle cx="1662" cy="108" r="1.5" opacity="0.12"/>
<circle cx="1484" cy="59" r="1.3" opacity="0.21"/>
<circle cx="1623" cy="119" r="1.6" opacity="0.13"/>
<circle cx="1853" cy="110" r="1.6" opacity="0.13"/>
<circle cx="1471" cy="324" r="0.9" opacity="0.18"/>
<circle cx="1734" cy="64" r="0.8" opacity="0.11"/>
<circle cx="1802" cy="171" r="1.4" opacity="0.16"/>
<circle cx="851" cy="116" r="1.7" opacity="0.14"/>
<circle cx="1833" cy="63" r="1.0" opacity="0.17"/>
<circle cx="1657" cy="343" r="1.8" opacity="0.18"/>
<circle cx="1100" cy="130" r="1.0" opacity="0.17"/>
<circle cx="1903" cy="387" r="1.2" opacity="0.17"/>
<circle cx="1115" cy="56" r="1.7" opacity="0.15"/>
<circle cx="1793" cy="293" r="1.0" opacity="0.11"/>
<circle cx="910" cy="367" r="1.6" opacity="0.16"/>
<circle cx="1163" cy="185" r="1.3" opacity="0.18"/>
<circle cx="1275" cy="142" r="1.3" opacity="0.22"/>
<circle cx="1469" cy="146" r="1.0" opacity="0.12"/>
<circle cx="1792" cy="282" r="1.2" opacity="0.11"/>
<circle cx="1746" cy="311" r="1.4" opacity="0.17"/>
<circle cx="1260" cy="315" r="1.6" opacity="0.15"/>
<circle cx="1229" cy="113" r="1.3" opacity="0.19"/>
<circle cx="1118" cy="52" r="0.7" opacity="0.22"/>
<circle cx="716" cy="372" r="0.9" opacity="0.11"/>
<circle cx="1641" cy="109" r="1.1" opacity="0.17"/>
<circle cx="1696" cy="242" r="0.8" opacity="0.18"/>
<circle cx="1241" cy="210" r="1.0" opacity="0.21"/>
<circle cx="1875" cy="150" r="1.7" opacity="0.20"/>
<circle cx="1097" cy="285" r="0.8" opacity="0.21"/>
<circle cx="1359" cy="360" r="1.3" opacity="0.12"/>
<circle cx="710" cy="184" r="1.1" opacity="0.16"/>
<circle cx="1291" cy="167" r="1.1" opacity="0.14"/>
<circle cx="1574" cy="328" r="1.3" opacity="0.16"/>
<circle cx="1331" cy="227" r="1.6" opacity="0.13"/>
<circle cx="1539" cy="32" r="1.7" opacity="0.10"/>
<circle cx="870" cy="342" r="1.2" opacity="0.18"/>
<circle cx="1623" cy="364" r="1.7" opacity="0.21"/>
<circle cx="1834" cy="116" r="0.8" opacity="0.21"/>
<circle cx="869" cy="212" r="1.6" opacity="0.20"/>
<circle cx="1816" cy="125" r="1.5" opacity="0.16"/>
<circle cx="1567" cy="290" r="0.9" opacity="0.10"/>
<circle cx="1309" cy="59" r="0.8" opacity="0.17"/>
<circle cx="1665" cy="344" r="0.7" opacity="0.19"/>
<circle cx="1068" cy="46" r="1.2" opacity="0.12"/>
<circle cx="1200" cy="162" r="1.0" opacity="0.19"/>
<circle cx="1622" cy="338" r="1.6" opacity="0.11"/>
<circle cx="1690" cy="83" r="0.9" opacity="0.12"/>
<circle cx="1700" cy="159" r="1.2" opacity="0.13"/>
<circle cx="1551" cy="175" r="1.0" opacity="0.13"/>
<circle cx="1589" cy="117" r="1.8" opacity="0.17"/>
<circle cx="1638" cy="350" r="0.8" opacity="0.21"/>
<circle cx="1543" cy="198" r="1.6" opacity="0.10"/>
<circle cx="1659" cy="369" r="1.1" opacity="0.20"/>
<circle cx="1544" cy="109" r="1.1" opacity="0.21"/>
<circle cx="1891" cy="80" r="1.3" opacity="0.20"/>
<circle cx="1480" cy="285" r="1.7" opacity="0.16"/>
<circle cx="876" cy="256" r="0.8" opacity="0.18"/>
<circle cx="967" cy="189" r="1.4" opacity="0.19"/>
<circle cx="1817" cy="253" r="1.0" opacity="0.15"/>
<circle cx="1097" cy="358" r="1.2" opacity="0.16"/>
<circle cx="1164" cy="187" r="1.2" opacity="0.19"/>
<circle cx="1427" cy="204" r="1.4" opacity="0.14"/>
<circle cx="960" cy="319" r="1.6" opacity="0.18"/>
<circle cx="1785" cy="296" r="1.4" opacity="0.17"/>
<circle cx="1516" cy="288" r="1.3" opacity="0.13"/>
<circle cx="1167" cy="287" r="1.7" opacity="0.10"/>
<circle cx="1286" cy="271" r="1.7" opacity="0.15"/>
<circle cx="1341" cy="44" r="0.9" opacity="0.22"/>
<circle cx="1849" cy="104" r="1.0" opacity="0.12"/>
<circle cx="1211" cy="95" r="1.7" opacity="0.12"/>
<circle cx="943" cy="109" r="1.5" opacity="0.12"/>
<circle cx="1144" cy="122" r="1.0" opacity="0.22"/>
<circle cx="1082" cy="373" r="1.6" opacity="0.18"/>
<circle cx="711" cy="112" r="1.7" opacity="0.16"/>
<circle cx="1630" cy="165" r="1.5" opacity="0.21"/>
<circle cx="1097" cy="37" r="1.3" opacity="0.14"/>
<circle cx="1190" cy="92" r="1.4" opacity="0.15"/>
<circle cx="1498" cy="78" r="1.1" opacity="0.17"/>
<circle cx="1888" cy="149" r="1.3" opacity="0.21"/>
<circle cx="1764" cy="278" r="1.7" opacity="0.15"/>
<circle cx="744" cy="156" r="0.8" opacity="0.14"/>
<circle cx="1325" cy="294" r="1.7" opacity="0.14"/>
<circle cx="1874" cy="327" r="1.0" opacity="0.19"/>
<circle cx="1082" cy="117" r="1.6" opacity="0.18"/>
<circle cx="1009" cy="386" r="1.0" opacity="0.14"/>
<circle cx="911" cy="36" r="1.7" opacity="0.12"/>
<circle cx="1259" cy="321" r="1.3" opacity="0.20"/>
<circle cx="1800" cy="330" r="0.9" opacity="0.10"/>
<circle cx="952" cy="264" r="0.9" opacity="0.11"/>
<circle cx="1566" cy="104" r="0.9" opacity="0.17"/>
<circle cx="1795" cy="65" r="1.3" opacity="0.14"/>
<circle cx="1106" cy="313" r="1.6" opacity="0.17"/>
<circle cx="1439" cy="326" r="1.2" opacity="0.12"/>
<circle cx="1339" cy="289" r="0.9" opacity="0.20"/>
<circle cx="1756" cy="62" r="1.6" opacity="0.14"/>
<circle cx="1070" cy="386" r="1.0" opacity="0.11"/>
<circle cx="1781" cy="206" r="1.0" opacity="0.21"/>
<circle cx="704" cy="35" r="1.0" opacity="0.13"/>
<circle cx="1473" cy="291" r="1.7" opacity="0.16"/>
<circle cx="1125" cy="293" r="1.3" opacity="0.15"/>
<circle cx="1662" cy="326" r="1.7" opacity="0.20"/>
</g><path d="M971.9 341.7 L973.3 341.2 L975.8 342.3 L980.3 345.9 L985.7 351.3 L991.4 357.9 L997.1 364.8 L1002.3 371.5 L1007.0 377.4 L1011.2 382.0 L1016.8 385.7 L1027.6 381.6 L1029.6 374.6 L1029.5 368.2 L1028.7 360.8 L1027.4 352.4 L1026.1 343.5 L1024.8 334.9 L1024.1 327.3 L1023.9 321.5 L1024.1 318.8 L1022.7 319.9 L1019.8 320.4 L1021.1 320.8 L1025.1 323.6 L1030.2 328.5 L1035.9 334.8 L1041.6 341.7 L1047.0 348.6 L1051.8 354.7 L1056.1 359.8 L1061.0 363.8 L1072.4 363.1 L1076.8 354.9 L1077.0 348.5 L1076.3 341.4 L1075.1 333.2 L1073.8 324.4 L1072.5 315.6 L1071.5 307.7 L1071.2 301.4 L1071.4 297.9 L1070.6 298.3 L1066.9 299.6 L1066.6 299.5 L1069.9 301.6 L1074.8 305.9 L1080.3 311.8 L1086.0 318.6 L1091.6 325.6 L1096.6 332.0 L1101.1 337.4 L1105.6 341.8 L1115.4 344.1 L1123.7 335.4 L1124.4 328.8 L1123.9 321.9 L1122.8 313.9 L1121.5 305.3 L1120.1 296.5 L1119.1 288.2 L1118.6 281.5 L1118.6 277.1 L1118.4 276.6 L1114.7 278.7 L1112.6 278.5 L1115.0 279.8 L1119.5 283.4 L1124.8 288.9 L1130.5 295.5 L1136.1 302.5 L1141.3 309.1 L1145.9 314.9 L1150.4 319.6 L1157.9 323.4 L1170.1 316.6 L1171.7 309.1 L1171.4 302.3 L1170.5 294.7 L1169.2 286.1 L1167.8 277.3 L1166.6 268.9 L1166.0 261.6 L1165.9 256.6 L1165.9 255.0 L1163.0 257.4 L1159.1 257.7 L1160.3 258.2 L1164.2 261.1 L1169.4 266.2 L1175.0 272.5 L1180.6 279.4 L1186.0 286.2 L1190.8 292.3 L1195.2 297.3 L1201.2 301.7 L1215.3 298.5 L1218.8 289.4 L1218.9 282.7 L1218.1 275.3 L1216.9 267.0 L1215.5 258.2 L1214.2 249.6 L1213.4 241.9 L1213.2 236.2 L1213.3 233.7 L1211.4 235.6 L1206.3 237.0 L1205.8 236.9 L1209.1 239.0 L1214.0 243.5 L1219.5 249.5 L1225.1 256.3 L1230.6 263.2 L1235.6 269.5 L1240.1 274.9 L1245.2 279.5 L1258.4 280.5 L1265.8 270.1 L1266.3 263.1 L1265.7 255.9 L1264.6 247.8 L1263.2 239.0 L1261.9 230.3 L1260.9 222.4 L1260.5 216.1 L1260.6 212.6 L1259.6 213.6 L1254.3 216.2 L1251.8 215.8 L1254.2 217.2 L1258.6 221.0 L1264.0 226.6 L1269.6 233.2 L1275.2 240.2 L1280.3 246.7 L1284.9 252.4 L1289.7 257.2 L1300.0 261.0 L1312.5 251.2 L1313.6 243.4 L1313.3 236.4 L1312.3 228.5 L1310.9 219.9 L1309.6 211.1 L1308.5 202.9 L1307.9 196.1 L1307.9 191.8 L1307.5 191.6 L1307.2 192.3 L1303.5 194.8 L1306.7 193.4 L1310.5 191.7 L1314.8 189.9 L1319.6 187.9 L1324.8 185.7 L1330.5 183.3 L1336.4 180.8 L1342.7 178.2 L1349.2 175.4 L1356.0 172.6 L1363.0 169.7 L1370.1 166.7 L1377.3 163.7 L1384.7 160.6 L1392.0 157.5 L1399.4 154.4 L1406.7 151.4 L1413.9 148.3 L1421.0 145.4 L1428.0 142.5 L1434.7 139.6 L1441.2 136.9 L1447.4 134.3 L1453.4 131.8 L1458.9 129.5 L1464.1 127.3 L1468.8 125.4 L1473.1 123.6 L1476.8 122.0 L1482.1 119.5 L1467.8 100.0 L1463.1 102.4 L1457.5 105.6 L1451.2 109.6 L1444.6 114.2 L1438.1 119.3 L1432.1 124.9 L1426.9 131.0 L1422.8 137.8 L1420.3 145.5 L1420.8 154.3 L1425.1 162.2 L1431.6 167.6 L1439.1 170.8 L1447.0 172.5 L1455.3 173.1 L1463.7 172.9 L1471.8 172.0 L1479.3 170.7 L1485.9 169.0 L1491.3 167.4 L1495.2 165.8 L1498.4 164.1 L1490.5 142.2 L1487.1 143.5 L1483.4 145.2 L1478.5 147.8 L1472.8 151.1 L1466.5 155.1 L1459.9 159.8 L1453.5 165.0 L1447.6 170.7 L1442.6 176.8 L1438.8 183.6 L1436.8 191.3 L1437.9 199.9 L1442.5 207.2 L1449.1 212.0 L1456.5 214.9 L1464.4 216.4 L1472.7 216.8 L1481.0 216.5 L1489.0 215.5 L1496.4 214.1 L1502.7 212.5 L1507.8 210.8 L1511.5 209.3 L1514.9 207.3 L1505.9 187.3 L1502.8 188.6 L1498.9 190.5 L1493.9 193.2 L1488.1 196.6 L1481.7 200.7 L1475.2 205.5 L1468.9 210.7 L1463.2 216.4 L1458.4 222.5 L1454.9 229.3 L1453.3 237.1 L1455.0 245.3 L1459.9 252.1 L1466.5 256.4 L1473.9 258.9 L1481.9 260.2 L1490.1 260.5 L1498.3 260.1 L1506.2 259.0 L1513.4 257.6 L1519.5 255.9 L1524.4 254.3 L1527.8 252.8 L1532.1 249.9 L1521.5 232.5 L1518.4 233.8 L1514.4 235.8 L1509.3 238.6 L1503.4 242.1 L1497.0 246.3 L1490.5 251.1 L1484.3 256.4 L1478.8 262.1 L1474.3 268.3 L1471.1 275.0 L1470.0 282.7 L1472.2 290.6 L1477.3 296.8 L1484.0 300.7 L1491.3 303.0 L1499.2 304.0 L1507.4 304.2 L1515.6 303.7 L1523.3 302.5 L1530.3 301.0 L1536.2 299.4 L1540.8 297.8 L1544.0 296.3 L1550.7 287.2 L1537.2 277.6 L1534.1 279.0 L1529.9 281.1 L1524.7 284.0 L1518.6 287.6 L1512.2 291.9 L1505.8 296.8 L1499.8 302.1 L1494.5 307.9 L1490.2 314.0 L1487.3 320.7 L1486.7 328.3 L1489.4 335.8 L1494.7 341.4 L1501.4 344.9 L1508.7 346.9 L1516.6 347.8 L1524.8 347.9 L1532.8 347.2 L1540.5 346.0 L1547.3 344.5 L1552.9 342.9 L1557.2 341.3 L1560.2 339.8 L1559.1 322.0 L1552.9 322.7 L1549.7 324.2 L1545.4 326.4 L1540.0 329.4 L1533.9 333.2 L1527.5 337.6 L1521.2 342.5 L1515.3 347.8 L1510.2 353.6 L1506.1 359.7 L1503.6 366.4 L1503.5 373.8 L1506.6 380.8 L1512.1 385.9 L1518.7 389.1 L1526.1 390.9 L1534.0 391.6 L1542.1 391.5 L1550.1 390.8 L1557.5 389.5 L1564.1 388.0 L1569.6 386.3 L1573.6 384.8 L1576.4 383.4 L1572.1 366.7 L1569.2 367.7 L1574.8 383.1 L1577.4 382.0 L1580.3 380.7 L1583.7 379.2 L1587.5 377.6 L1591.6 375.8 L1596.0 373.9 L1600.7 371.9 L1605.6 369.7 L1610.8 367.5 L1616.1 365.2 L1621.7 362.8 L1627.3 360.3 L1633.0 357.9 L1638.8 355.4 L1644.6 352.8 L1650.5 350.3 L1656.3 347.8 L1662.0 345.3 L1667.7 342.9 L1673.2 340.5 L1678.5 338.2 L1683.7 336.0 L1688.7 333.8 L1693.4 331.8 L1697.8 329.9 L1702.0 328.1 L1705.7 326.5 L1709.1 325.0 L1712.1 323.7 L1711.7 323.5 L1703.7 321.3 L1705.2 322.5 L1708.6 326.0 L1713.3 331.0 L1718.8 336.7 L1724.9 342.9 L1731.5 348.8 L1738.3 354.2 L1745.4 358.5 L1753.2 361.4 L1762.5 361.4 L1771.4 356.4 L1776.4 348.4 L1778.2 340.0 L1778.4 331.4 L1777.4 322.6 L1775.6 313.7 L1773.3 305.3 L1770.9 297.7 L1768.7 291.4 L1767.0 287.0 L1766.3 285.7 L1758.0 297.7 L1748.1 295.8 L1749.8 297.2 L1753.3 300.9 L1758.0 305.9 L1763.5 311.8 L1769.7 317.9 L1776.3 323.8 L1783.2 329.1 L1790.4 333.4 L1798.3 336.1 L1807.8 335.8 L1816.6 330.4 L1821.3 322.2 L1823.0 313.8 L1823.1 305.1 L1822.0 296.3 L1820.1 287.4 L1817.9 279.0 L1815.4 271.5 L1813.2 265.3 L1811.6 261.1 L1811.0 260.2 L1800.1 272.8 L1792.4 270.4 L1794.3 272.0 L1797.9 275.8 L1802.7 280.9 L1808.3 286.8 L1814.6 292.9 L1821.2 298.9 L1828.1 304.1 L1835.3 308.3 L1843.5 310.9 L1853.1 310.2 L1861.8 304.3 L1866.3 296.0 L1867.8 287.5 L1867.7 278.8 L1866.6 269.9 L1864.7 261.1 L1862.4 252.7 L1860.0 245.3 L1857.8 239.3 L1856.2 235.2 L1855.7 234.8 L1842.5 247.4 L1836.8 244.9 L1838.9 246.8 L1842.6 250.7 L1847.4 255.9 L1853.1 261.8 L1859.4 268.0 L1866.1 273.9 L1873.0 279.1 L1880.3 283.2 L1888.6 285.6 L1898.5 284.5 L1907.0 278.2 L1911.2 269.8 L1912.6 261.3 L1912.4 252.5 L1911.2 243.6 L1909.2 234.8 L1906.9 226.5 L1904.5 219.1 L1902.3 213.2 L1900.8 209.3 L1900.4 209.5 L1885.3 221.8 L1881.2 219.6 L1883.4 221.6 L1887.2 225.6 L1892.2 230.9 L1897.9 236.9 L1904.2 243.0 L1911.0 248.9 L1917.9 254.0 L1925.3 258.1 L1933.8 260.3 L1943.8 258.8 L1952.1 252.2 L1956.1 243.6 L1957.3 235.0 L1957.1 226.2 L1955.8 217.3 L1953.8 208.5 L1951.4 200.2 L1949.0 192.9 L1946.9 187.1 L1945.5 183.5 L1945.2 184.3 L1928.5 196.0 L1925.6 194.2 L1928.0 196.4 L1931.9 200.5 L1936.9 205.9 L1942.7 211.9 L1949.1 218.1 L1955.8 223.9 L1962.9 229.0 L1970.4 232.9 L1979.0 235.0 L1989.2 233.1 L1997.2 226.0 L2001.0 217.4 L2002.1 208.7 L2001.7 199.9 L2000.4 190.9 L1998.3 182.1 L1996.0 173.9 L1993.5 166.7 L1991.5 161.1 L1990.1 157.7 L1989.9 159.3 L1972.0 170.2 L1970.0 168.8 L1972.6 171.2 L1976.6 175.5 L1981.6 180.9 L1987.5 186.9 L1993.9 193.1 L2000.7 198.9 L2007.8 203.9 L2015.4 207.8 L2024.3 209.7 L2031.2 208.7 L2024.9 183.2 L2024.2 184.1 L2023.6 184.1 L2020.2 182.7 L2015.4 179.6 L2009.9 175.2 L2004.4 170.0 L1999.2 164.5 L1994.7 159.3 L1990.9 154.7 L1987.8 151.0 L1982.5 146.8 L1963.6 158.5 L1964.3 164.8 L1965.5 169.6 L1967.2 175.3 L1969.2 181.9 L1971.2 189.2 L1973.0 196.4 L1974.2 203.1 L1974.7 208.5 L1974.7 211.7 L1975.0 212.0 L1977.4 210.3 L1979.8 209.9 L1978.8 209.9 L1975.3 208.3 L1970.3 205.1 L1964.8 200.6 L1959.3 195.3 L1954.2 189.8 L1949.7 184.7 L1946.0 180.2 L1943.0 176.5 L1936.9 172.1 L1919.3 185.0 L1920.1 190.7 L1921.4 195.5 L1923.1 201.3 L1925.1 208.0 L1927.1 215.3 L1928.8 222.5 L1930.0 229.1 L1930.5 234.4 L1930.4 237.5 L1930.8 237.6 L1933.3 236.0 L1935.3 235.8 L1934.1 235.7 L1930.3 233.9 L1925.3 230.6 L1919.8 226.0 L1914.3 220.7 L1909.2 215.2 L1904.7 210.0 L1901.1 205.6 L1898.1 202.0 L1890.9 197.5 L1875.1 211.2 L1875.9 216.6 L1877.2 221.4 L1879.0 227.3 L1881.0 234.1 L1883.0 241.4 L1884.7 248.6 L1885.8 255.2 L1886.2 260.4 L1886.2 263.3 L1886.6 263.2 L1889.1 261.7 L1890.9 261.6 L1889.3 261.4 L1885.3 259.5 L1880.2 256.0 L1874.7 251.4 L1869.2 246.0 L1864.1 240.5 L1859.7 235.4 L1856.2 231.1 L1853.2 227.5 L1844.6 223.1 L1830.8 237.4 L1831.7 242.5 L1833.1 247.4 L1834.9 253.3 L1836.9 260.2 L1838.9 267.5 L1840.5 274.7 L1841.6 281.2 L1842.0 286.3 L1841.9 289.0 L1842.4 288.8 L1844.9 287.5 L1846.3 287.5 L1844.4 287.1 L1840.4 285.1 L1835.2 281.5 L1829.6 276.7 L1824.1 271.3 L1819.1 265.9 L1814.8 260.8 L1811.3 256.5 L1808.3 253.0 L1797.9 248.9 L1786.6 263.5 L1787.5 268.3 L1788.9 273.3 L1790.7 279.4 L1792.8 286.3 L1794.7 293.6 L1796.3 300.8 L1797.4 307.2 L1797.7 312.2 L1797.6 314.8 L1798.2 314.5 L1800.7 313.2 L1801.8 313.3 L1799.6 312.8 L1795.4 310.7 L1790.1 306.9 L1784.5 302.1 L1779.1 296.7 L1774.1 291.2 L1769.8 286.2 L1766.4 282.0 L1763.3 278.5 L1751.0 275.2 L1742.4 289.5 L1743.3 294.2 L1744.8 299.3 L1746.6 305.4 L1748.7 312.4 L1750.6 319.7 L1752.2 326.9 L1753.2 333.3 L1753.5 338.1 L1753.3 340.5 L1754.1 340.1 L1756.5 339.0 L1757.2 339.2 L1754.7 338.5 L1750.4 336.2 L1745.1 332.4 L1739.4 327.5 L1734.0 322.0 L1729.1 316.6 L1724.9 311.6 L1721.5 307.5 L1718.4 304.0 L1708.2 300.6 L1702.6 302.7 L1699.7 304.1 L1696.3 305.7 L1692.6 307.5 L1688.5 309.5 L1684.2 311.6 L1679.5 313.8 L1674.7 316.2 L1669.6 318.7 L1664.3 321.2 L1658.9 323.8 L1653.4 326.5 L1647.8 329.3 L1642.1 332.0 L1636.4 334.8 L1630.7 337.6 L1625.0 340.3 L1619.4 343.1 L1613.8 345.8 L1608.4 348.4 L1603.2 351.0 L1598.1 353.4 L1593.3 355.8 L1588.7 358.0 L1584.4 360.1 L1580.3 362.1 L1576.7 363.9 L1573.3 365.5 L1570.4 366.9 L1567.9 368.1 L1573.6 383.6 L1573.4 383.7 L1568.6 367.7 L1567.4 367.9 L1564.3 368.8 L1559.7 370.0 L1554.0 371.2 L1547.6 372.2 L1540.9 373.0 L1534.4 373.2 L1528.6 373.0 L1524.0 372.2 L1521.1 371.2 L1519.9 370.5 L1519.6 370.3 L1519.5 369.3 L1520.2 366.8 L1522.5 363.0 L1526.3 358.8 L1531.1 354.5 L1536.6 350.4 L1542.4 346.7 L1547.9 343.8 L1552.7 341.5 L1556.4 340.1 L1558.6 339.6 L1554.6 339.8 L1552.3 322.7 L1550.8 323.1 L1547.4 324.1 L1542.6 325.2 L1536.8 326.4 L1530.4 327.4 L1523.8 328.1 L1517.4 328.3 L1511.9 327.9 L1507.6 327.1 L1505.1 326.2 L1504.4 325.8 L1504.2 325.8 L1504.1 324.8 L1505.1 322.2 L1507.6 318.4 L1511.4 314.2 L1516.4 309.9 L1521.9 305.9 L1527.6 302.4 L1533.0 299.5 L1537.7 297.5 L1541.1 296.2 L1542.9 295.9 L1531.0 286.0 L1536.0 277.8 L1534.1 278.3 L1530.5 279.3 L1525.6 280.5 L1519.7 281.7 L1513.2 282.6 L1506.6 283.2 L1500.4 283.3 L1495.2 282.9 L1491.3 282.0 L1489.3 281.2 L1488.9 281.1 L1488.7 281.4 L1488.8 280.3 L1489.9 277.6 L1492.6 273.8 L1496.6 269.6 L1501.6 265.4 L1507.2 261.5 L1512.9 258.1 L1518.1 255.4 L1522.6 253.4 L1525.8 252.3 L1527.1 252.2 L1517.6 234.7 L1519.6 233.0 L1517.4 233.6 L1513.6 234.6 L1508.5 235.8 L1502.5 236.9 L1496.1 237.8 L1489.6 238.3 L1483.5 238.3 L1478.5 237.8 L1475.1 237.0 L1473.5 236.3 L1473.4 236.6 L1473.3 237.0 L1473.4 235.8 L1474.8 233.0 L1477.6 229.2 L1481.8 225.0 L1486.9 220.8 L1492.5 217.0 L1498.1 213.8 L1503.2 211.2 L1507.5 209.4 L1510.4 208.5 L1511.1 208.5 L1502.6 188.7 L1503.1 188.1 L1500.7 188.8 L1496.7 189.8 L1491.5 191.0 L1485.4 192.1 L1478.9 193.0 L1472.5 193.4 L1466.7 193.3 L1462.0 192.7 L1459.0 191.9 L1457.9 191.5 L1458.0 192.1 L1457.9 192.6 L1458.1 191.4 L1459.7 188.4 L1462.7 184.6 L1467.0 180.4 L1472.2 176.3 L1477.8 172.6 L1483.3 169.5 L1488.3 167.1 L1492.3 165.5 L1494.9 164.7 L1494.8 164.9 L1486.9 143.4 L1486.6 143.3 L1484.0 144.0 L1479.7 145.1 L1474.4 146.3 L1468.2 147.3 L1461.8 148.1 L1455.5 148.5 L1449.9 148.3 L1445.5 147.7 L1443.0 146.9 L1442.3 146.8 L1442.6 147.8 L1442.5 148.3 L1442.9 146.9 L1444.6 143.9 L1447.8 140.0 L1452.2 135.9 L1457.5 131.9 L1463.1 128.3 L1468.5 125.2 L1473.3 123.0 L1477.1 121.5 L1468.7 99.7 L1467.6 99.8 L1463.9 101.4 L1459.6 103.1 L1454.9 105.1 L1449.7 107.2 L1444.1 109.5 L1438.2 111.9 L1431.9 114.5 L1425.4 117.1 L1418.6 119.9 L1411.7 122.8 L1404.5 125.7 L1397.3 128.7 L1389.9 131.7 L1382.6 134.7 L1375.2 137.7 L1367.8 140.7 L1360.6 143.7 L1353.4 146.6 L1346.4 149.5 L1339.6 152.3 L1333.1 155.0 L1326.8 157.6 L1320.8 160.1 L1315.1 162.4 L1309.9 164.6 L1305.1 166.5 L1300.7 168.3 L1296.9 169.9 L1293.6 171.3 L1289.8 173.7 L1284.7 179.0 L1281.7 187.8 L1281.0 196.4 L1281.5 205.6 L1282.7 215.0 L1284.2 224.3 L1285.8 232.8 L1287.1 239.8 L1287.8 244.2 L1288.5 243.6 L1298.4 236.5 L1303.9 238.1 L1301.9 236.5 L1297.8 232.1 L1292.6 226.0 L1286.8 219.0 L1280.7 211.8 L1274.5 205.0 L1268.3 199.1 L1261.3 194.5 L1251.3 192.5 L1240.5 198.3 L1236.3 207.1 L1235.1 215.5 L1235.3 224.4 L1236.3 233.7 L1237.8 243.2 L1239.4 252.0 L1240.8 259.5 L1241.7 264.8 L1242.2 266.3 L1247.7 259.8 L1256.7 260.0 L1255.6 259.3 L1251.9 255.5 L1247.0 249.8 L1241.3 243.0 L1235.3 235.8 L1229.2 228.9 L1223.0 222.7 L1216.5 217.8 L1208.0 214.7 L1196.8 218.0 L1191.0 226.4 L1189.4 234.7 L1189.2 243.3 L1190.0 252.5 L1191.4 261.9 L1193.0 271.0 L1194.5 278.9 L1195.6 285.0 L1196.1 288.0 L1198.3 284.3 L1208.9 281.6 L1209.2 281.9 L1206.0 278.8 L1201.3 273.6 L1195.8 267.0 L1189.9 259.8 L1183.8 252.8 L1177.7 246.4 L1171.4 241.2 L1164.0 237.5 L1153.4 238.3 L1146.0 245.8 L1143.7 253.9 L1143.2 262.3 L1143.8 271.3 L1145.0 280.7 L1146.6 289.9 L1148.2 298.3 L1149.4 305.0 L1150.1 309.2 L1150.8 308.2 L1160.1 303.3 L1162.7 304.3 L1160.0 302.0 L1155.6 297.2 L1150.3 291.0 L1144.5 283.9 L1138.4 276.8 L1132.3 270.2 L1126.2 264.7 L1119.5 260.5 L1110.2 259.4 L1101.4 265.4 L1098.1 273.3 L1097.3 281.4 L1097.6 290.1 L1098.7 299.4 L1100.2 308.8 L1101.8 317.4 L1103.2 324.7 L1104.0 329.8 L1104.4 331.0 L1110.4 325.7 L1115.8 326.5 L1113.8 325.0 L1109.8 320.8 L1104.7 314.8 L1099.0 307.9 L1093.0 300.8 L1086.9 294.0 L1080.9 288.2 L1074.7 283.7 L1066.6 281.4 L1057.1 285.2 L1052.8 292.8 L1051.5 300.6 L1051.5 309.1 L1052.4 318.2 L1053.8 327.6 L1055.4 336.5 L1056.9 344.3 L1057.9 350.1 L1058.3 352.9 L1061.0 349.3 L1068.6 348.4 L1067.6 347.8 L1063.9 344.2 L1059.1 338.7 L1053.5 332.0 L1047.6 324.8 L1041.5 317.9 L1035.5 311.8 L1029.5 307.0 L1022.5 303.9 L1013.2 305.5 L1007.6 312.4 L1005.7 319.9 L1005.5 328.1 L1006.1 337.0 L1007.4 346.3 L1009.0 355.4 L1010.5 363.6 L1011.7 370.2 L1012.3 374.1 L1013.3 373.0 L1020.8 370.2 L1021.2 370.4 L1018.0 367.5 L1013.4 362.4 L1008.0 355.9 L1002.1 348.8 L996.1 341.8 L990.1 335.5 L984.3 330.3 L977.9 326.7 L972.4 326.0 Z" fill="#E9A03E" opacity="0.35"/>
<path d="M967.9 335.7 L969.3 335.2 L971.8 336.3 L976.3 339.9 L981.7 345.3 L987.4 351.9 L993.1 358.8 L998.3 365.5 L1003.0 371.4 L1007.2 376.0 L1012.8 379.7 L1023.6 375.6 L1025.6 368.6 L1025.5 362.2 L1024.7 354.8 L1023.4 346.4 L1022.1 337.5 L1020.8 328.9 L1020.1 321.3 L1019.9 315.5 L1020.1 312.8 L1018.7 313.9 L1015.8 314.4 L1017.1 314.8 L1021.1 317.6 L1026.2 322.5 L1031.9 328.8 L1037.6 335.7 L1043.0 342.6 L1047.8 348.7 L1052.1 353.8 L1057.0 357.8 L1068.4 357.1 L1072.8 348.9 L1073.0 342.5 L1072.3 335.4 L1071.1 327.2 L1069.8 318.4 L1068.5 309.6 L1067.5 301.7 L1067.2 295.4 L1067.4 291.9 L1066.6 292.3 L1062.9 293.6 L1062.6 293.5 L1065.9 295.6 L1070.8 299.9 L1076.3 305.8 L1082.0 312.6 L1087.6 319.6 L1092.6 326.0 L1097.1 331.4 L1101.6 335.8 L1111.4 338.1 L1119.7 329.4 L1120.4 322.8 L1119.9 315.9 L1118.8 307.9 L1117.5 299.3 L1116.1 290.5 L1115.1 282.2 L1114.6 275.5 L1114.6 271.1 L1114.4 270.6 L1110.7 272.7 L1108.6 272.5 L1111.0 273.8 L1115.5 277.4 L1120.8 282.9 L1126.5 289.5 L1132.1 296.5 L1137.3 303.1 L1141.9 308.9 L1146.4 313.6 L1153.9 317.4 L1166.1 310.6 L1167.7 303.1 L1167.4 296.3 L1166.5 288.7 L1165.2 280.1 L1163.8 271.3 L1162.6 262.9 L1162.0 255.6 L1161.9 250.6 L1161.9 249.0 L1159.0 251.4 L1155.1 251.7 L1156.3 252.2 L1160.2 255.1 L1165.4 260.2 L1171.0 266.5 L1176.6 273.4 L1182.0 280.2 L1186.8 286.3 L1191.2 291.3 L1197.2 295.7 L1211.3 292.5 L1214.8 283.4 L1214.9 276.7 L1214.1 269.3 L1212.9 261.0 L1211.5 252.2 L1210.2 243.6 L1209.4 235.9 L1209.2 230.2 L1209.3 227.7 L1207.4 229.6 L1202.3 231.0 L1201.8 230.9 L1205.1 233.0 L1210.0 237.5 L1215.5 243.5 L1221.1 250.3 L1226.6 257.2 L1231.6 263.5 L1236.1 268.9 L1241.2 273.5 L1254.4 274.5 L1261.8 264.1 L1262.3 257.1 L1261.7 249.9 L1260.6 241.8 L1259.2 233.0 L1257.9 224.3 L1256.9 216.4 L1256.5 210.1 L1256.6 206.6 L1255.6 207.6 L1250.3 210.2 L1247.8 209.8 L1250.2 211.2 L1254.6 215.0 L1260.0 220.6 L1265.6 227.2 L1271.2 234.2 L1276.3 240.7 L1280.9 246.4 L1285.7 251.2 L1296.0 255.0 L1308.5 245.2 L1309.6 237.4 L1309.3 230.4 L1308.3 222.5 L1306.9 213.9 L1305.6 205.1 L1304.5 196.9 L1303.9 190.1 L1303.9 185.8 L1303.5 185.6 L1303.2 186.3 L1299.5 188.8 L1302.7 187.4 L1306.5 185.7 L1310.8 183.9 L1315.6 181.9 L1320.8 179.7 L1326.5 177.3 L1332.4 174.8 L1338.7 172.2 L1345.2 169.4 L1352.0 166.6 L1359.0 163.7 L1366.1 160.7 L1373.3 157.7 L1380.7 154.6 L1388.0 151.5 L1395.4 148.4 L1402.7 145.4 L1409.9 142.3 L1417.0 139.4 L1424.0 136.5 L1430.7 133.6 L1437.2 130.9 L1443.4 128.3 L1449.4 125.8 L1454.9 123.5 L1460.1 121.3 L1464.8 119.4 L1469.1 117.6 L1472.8 116.0 L1478.1 113.5 L1463.8 94.0 L1459.1 96.4 L1453.5 99.6 L1447.2 103.6 L1440.6 108.2 L1434.1 113.3 L1428.1 118.9 L1422.9 125.0 L1418.8 131.8 L1416.3 139.5 L1416.8 148.3 L1421.1 156.2 L1427.6 161.6 L1435.1 164.8 L1443.0 166.5 L1451.3 167.1 L1459.7 166.9 L1467.8 166.0 L1475.3 164.7 L1481.9 163.0 L1487.3 161.4 L1491.2 159.8 L1494.4 158.1 L1486.5 136.2 L1483.1 137.5 L1479.4 139.2 L1474.5 141.8 L1468.8 145.1 L1462.5 149.1 L1455.9 153.8 L1449.5 159.0 L1443.6 164.7 L1438.6 170.8 L1434.8 177.6 L1432.8 185.3 L1433.9 193.9 L1438.5 201.2 L1445.1 206.0 L1452.5 208.9 L1460.4 210.4 L1468.7 210.8 L1477.0 210.5 L1485.0 209.5 L1492.4 208.1 L1498.7 206.5 L1503.8 204.8 L1507.5 203.3 L1510.9 201.3 L1501.9 181.3 L1498.8 182.6 L1494.9 184.5 L1489.9 187.2 L1484.1 190.6 L1477.7 194.7 L1471.2 199.5 L1464.9 204.7 L1459.2 210.4 L1454.4 216.5 L1450.9 223.3 L1449.3 231.1 L1451.0 239.3 L1455.9 246.1 L1462.5 250.4 L1469.9 252.9 L1477.9 254.2 L1486.1 254.5 L1494.3 254.1 L1502.2 253.0 L1509.4 251.6 L1515.5 249.9 L1520.4 248.3 L1523.8 246.8 L1528.1 243.9 L1517.5 226.5 L1514.4 227.8 L1510.4 229.8 L1505.3 232.6 L1499.4 236.1 L1493.0 240.3 L1486.5 245.1 L1480.3 250.4 L1474.8 256.1 L1470.3 262.3 L1467.1 269.0 L1466.0 276.7 L1468.2 284.6 L1473.3 290.8 L1480.0 294.7 L1487.3 297.0 L1495.2 298.0 L1503.4 298.2 L1511.6 297.7 L1519.3 296.5 L1526.3 295.0 L1532.2 293.4 L1536.8 291.8 L1540.0 290.3 L1546.7 281.2 L1533.2 271.6 L1530.1 273.0 L1525.9 275.1 L1520.7 278.0 L1514.6 281.6 L1508.2 285.9 L1501.8 290.8 L1495.8 296.1 L1490.5 301.9 L1486.2 308.0 L1483.3 314.7 L1482.7 322.3 L1485.4 329.8 L1490.7 335.4 L1497.4 338.9 L1504.7 340.9 L1512.6 341.8 L1520.8 341.9 L1528.8 341.2 L1536.5 340.0 L1543.3 338.5 L1548.9 336.9 L1553.2 335.3 L1556.2 333.8 L1555.1 316.0 L1548.9 316.7 L1545.7 318.2 L1541.4 320.4 L1536.0 323.4 L1529.9 327.2 L1523.5 331.6 L1517.2 336.5 L1511.3 341.8 L1506.2 347.6 L1502.1 353.7 L1499.6 360.4 L1499.5 367.8 L1502.6 374.8 L1508.1 379.9 L1514.7 383.1 L1522.1 384.9 L1530.0 385.6 L1538.1 385.5 L1546.1 384.8 L1553.5 383.5 L1560.1 382.0 L1565.6 380.3 L1569.6 378.8 L1572.4 377.4 L1568.1 360.7 L1565.2 361.7 L1570.8 377.1 L1573.4 376.0 L1576.3 374.7 L1579.7 373.2 L1583.5 371.6 L1587.6 369.8 L1592.0 367.9 L1596.7 365.9 L1601.6 363.7 L1606.8 361.5 L1612.1 359.2 L1617.7 356.8 L1623.3 354.3 L1629.0 351.9 L1634.8 349.4 L1640.6 346.8 L1646.5 344.3 L1652.3 341.8 L1658.0 339.3 L1663.7 336.9 L1669.2 334.5 L1674.5 332.2 L1679.7 330.0 L1684.7 327.8 L1689.4 325.8 L1693.8 323.9 L1698.0 322.1 L1701.7 320.5 L1705.1 319.0 L1708.1 317.7 L1707.7 317.5 L1699.7 315.3 L1701.2 316.5 L1704.6 320.0 L1709.3 325.0 L1714.8 330.7 L1720.9 336.9 L1727.5 342.8 L1734.3 348.2 L1741.4 352.5 L1749.2 355.4 L1758.5 355.4 L1767.4 350.4 L1772.4 342.4 L1774.2 334.0 L1774.4 325.4 L1773.4 316.6 L1771.6 307.7 L1769.3 299.3 L1766.9 291.7 L1764.7 285.4 L1763.0 281.0 L1762.3 279.7 L1754.0 291.7 L1744.1 289.8 L1745.8 291.2 L1749.3 294.9 L1754.0 299.9 L1759.5 305.8 L1765.7 311.9 L1772.3 317.8 L1779.2 323.1 L1786.4 327.4 L1794.3 330.1 L1803.8 329.8 L1812.6 324.4 L1817.3 316.2 L1819.0 307.8 L1819.1 299.1 L1818.0 290.3 L1816.1 281.4 L1813.9 273.0 L1811.4 265.5 L1809.2 259.3 L1807.6 255.1 L1807.0 254.2 L1796.1 266.8 L1788.4 264.4 L1790.3 266.0 L1793.9 269.8 L1798.7 274.9 L1804.3 280.8 L1810.6 286.9 L1817.2 292.9 L1824.1 298.1 L1831.3 302.3 L1839.5 304.9 L1849.1 304.2 L1857.8 298.3 L1862.3 290.0 L1863.8 281.5 L1863.7 272.8 L1862.6 263.9 L1860.7 255.1 L1858.4 246.7 L1856.0 239.3 L1853.8 233.3 L1852.2 229.2 L1851.7 228.8 L1838.5 241.4 L1832.8 238.9 L1834.9 240.8 L1838.6 244.7 L1843.4 249.9 L1849.1 255.8 L1855.4 262.0 L1862.1 267.9 L1869.0 273.1 L1876.3 277.2 L1884.6 279.6 L1894.5 278.5 L1903.0 272.2 L1907.2 263.8 L1908.6 255.3 L1908.4 246.5 L1907.2 237.6 L1905.2 228.8 L1902.9 220.5 L1900.5 213.1 L1898.3 207.2 L1896.8 203.3 L1896.4 203.5 L1881.3 215.8 L1877.2 213.6 L1879.4 215.6 L1883.2 219.6 L1888.2 224.9 L1893.9 230.9 L1900.2 237.0 L1907.0 242.9 L1913.9 248.0 L1921.3 252.1 L1929.8 254.3 L1939.8 252.8 L1948.1 246.2 L1952.1 237.6 L1953.3 229.0 L1953.1 220.2 L1951.8 211.3 L1949.8 202.5 L1947.4 194.2 L1945.0 186.9 L1942.9 181.1 L1941.5 177.5 L1941.2 178.3 L1924.5 190.0 L1921.6 188.2 L1924.0 190.4 L1927.9 194.5 L1932.9 199.9 L1938.7 205.9 L1945.1 212.1 L1951.8 217.9 L1958.9 223.0 L1966.4 226.9 L1975.0 229.0 L1985.2 227.1 L1993.2 220.0 L1997.0 211.4 L1998.1 202.7 L1997.7 193.9 L1996.4 184.9 L1994.3 176.1 L1992.0 167.9 L1989.5 160.7 L1987.5 155.1 L1986.1 151.7 L1985.9 153.3 L1968.0 164.2 L1966.0 162.8 L1968.6 165.2 L1972.6 169.5 L1977.6 174.9 L1983.5 180.9 L1989.9 187.1 L1996.7 192.9 L2003.8 197.9 L2011.4 201.8 L2020.3 203.7 L2027.2 202.7 L2020.9 177.2 L2020.2 178.1 L2019.6 178.1 L2016.2 176.7 L2011.4 173.6 L2005.9 169.2 L2000.4 164.0 L1995.2 158.5 L1990.7 153.3 L1986.9 148.7 L1983.8 145.0 L1978.5 140.8 L1959.6 152.5 L1960.3 158.8 L1961.5 163.6 L1963.2 169.3 L1965.2 175.9 L1967.2 183.2 L1969.0 190.4 L1970.2 197.1 L1970.7 202.5 L1970.7 205.7 L1971.0 206.0 L1973.4 204.3 L1975.8 203.9 L1974.8 203.9 L1971.3 202.3 L1966.3 199.1 L1960.8 194.6 L1955.3 189.3 L1950.2 183.8 L1945.7 178.7 L1942.0 174.2 L1939.0 170.5 L1932.9 166.1 L1915.3 179.0 L1916.1 184.7 L1917.4 189.5 L1919.1 195.3 L1921.1 202.0 L1923.1 209.3 L1924.8 216.5 L1926.0 223.1 L1926.5 228.4 L1926.4 231.5 L1926.8 231.6 L1929.3 230.0 L1931.3 229.8 L1930.1 229.7 L1926.3 227.9 L1921.3 224.6 L1915.8 220.0 L1910.3 214.7 L1905.2 209.2 L1900.7 204.0 L1897.1 199.6 L1894.1 196.0 L1886.9 191.5 L1871.1 205.2 L1871.9 210.6 L1873.2 215.4 L1875.0 221.3 L1877.0 228.1 L1879.0 235.4 L1880.7 242.6 L1881.8 249.2 L1882.2 254.4 L1882.2 257.3 L1882.6 257.2 L1885.1 255.7 L1886.9 255.6 L1885.3 255.4 L1881.3 253.5 L1876.2 250.0 L1870.7 245.4 L1865.2 240.0 L1860.1 234.5 L1855.7 229.4 L1852.2 225.1 L1849.2 221.5 L1840.6 217.1 L1826.8 231.4 L1827.7 236.5 L1829.1 241.4 L1830.9 247.3 L1832.9 254.2 L1834.9 261.5 L1836.5 268.7 L1837.6 275.2 L1838.0 280.3 L1837.9 283.0 L1838.4 282.8 L1840.9 281.5 L1842.3 281.5 L1840.4 281.1 L1836.4 279.1 L1831.2 275.5 L1825.6 270.7 L1820.1 265.3 L1815.1 259.9 L1810.8 254.8 L1807.3 250.5 L1804.3 247.0 L1793.9 242.9 L1782.6 257.5 L1783.5 262.3 L1784.9 267.3 L1786.7 273.4 L1788.8 280.3 L1790.7 287.6 L1792.3 294.8 L1793.4 301.2 L1793.7 306.2 L1793.6 308.8 L1794.2 308.5 L1796.7 307.2 L1797.8 307.3 L1795.6 306.8 L1791.4 304.7 L1786.1 300.9 L1780.5 296.1 L1775.1 290.7 L1770.1 285.2 L1765.8 280.2 L1762.4 276.0 L1759.3 272.5 L1747.0 269.2 L1738.4 283.5 L1739.3 288.2 L1740.8 293.3 L1742.6 299.4 L1744.7 306.4 L1746.6 313.7 L1748.2 320.9 L1749.2 327.3 L1749.5 332.1 L1749.3 334.5 L1750.1 334.1 L1752.5 333.0 L1753.2 333.2 L1750.7 332.5 L1746.4 330.2 L1741.1 326.4 L1735.4 321.5 L1730.0 316.0 L1725.1 310.6 L1720.9 305.6 L1717.5 301.5 L1714.4 298.0 L1704.2 294.6 L1698.6 296.7 L1695.7 298.1 L1692.3 299.7 L1688.6 301.5 L1684.5 303.5 L1680.2 305.6 L1675.5 307.8 L1670.7 310.2 L1665.6 312.7 L1660.3 315.2 L1654.9 317.8 L1649.4 320.5 L1643.8 323.3 L1638.1 326.0 L1632.4 328.8 L1626.7 331.6 L1621.0 334.3 L1615.4 337.1 L1609.8 339.8 L1604.4 342.4 L1599.2 345.0 L1594.1 347.4 L1589.3 349.8 L1584.7 352.0 L1580.4 354.1 L1576.3 356.1 L1572.7 357.9 L1569.3 359.5 L1566.4 360.9 L1563.9 362.1 L1569.6 377.6 L1569.4 377.7 L1564.6 361.7 L1563.4 361.9 L1560.3 362.8 L1555.7 364.0 L1550.0 365.2 L1543.6 366.2 L1536.9 367.0 L1530.4 367.2 L1524.6 367.0 L1520.0 366.2 L1517.1 365.2 L1515.9 364.5 L1515.6 364.3 L1515.5 363.3 L1516.2 360.8 L1518.5 357.0 L1522.3 352.8 L1527.1 348.5 L1532.6 344.4 L1538.4 340.7 L1543.9 337.8 L1548.7 335.5 L1552.4 334.1 L1554.6 333.6 L1550.6 333.8 L1548.3 316.7 L1546.8 317.1 L1543.4 318.1 L1538.6 319.2 L1532.8 320.4 L1526.4 321.4 L1519.8 322.1 L1513.4 322.3 L1507.9 321.9 L1503.6 321.1 L1501.1 320.2 L1500.4 319.8 L1500.2 319.8 L1500.1 318.8 L1501.1 316.2 L1503.6 312.4 L1507.4 308.2 L1512.4 303.9 L1517.9 299.9 L1523.6 296.4 L1529.0 293.5 L1533.7 291.5 L1537.1 290.2 L1538.9 289.9 L1527.0 280.0 L1532.0 271.8 L1530.1 272.3 L1526.5 273.3 L1521.6 274.5 L1515.7 275.7 L1509.2 276.6 L1502.6 277.2 L1496.4 277.3 L1491.2 276.9 L1487.3 276.0 L1485.3 275.2 L1484.9 275.1 L1484.7 275.4 L1484.8 274.3 L1485.9 271.6 L1488.6 267.8 L1492.6 263.6 L1497.6 259.4 L1503.2 255.5 L1508.9 252.1 L1514.1 249.4 L1518.6 247.4 L1521.8 246.3 L1523.1 246.2 L1513.6 228.7 L1515.6 227.0 L1513.4 227.6 L1509.6 228.6 L1504.5 229.8 L1498.5 230.9 L1492.1 231.8 L1485.6 232.3 L1479.5 232.3 L1474.5 231.8 L1471.1 231.0 L1469.5 230.3 L1469.4 230.6 L1469.3 231.0 L1469.4 229.8 L1470.8 227.0 L1473.6 223.2 L1477.8 219.0 L1482.9 214.8 L1488.5 211.0 L1494.1 207.8 L1499.2 205.2 L1503.5 203.4 L1506.4 202.5 L1507.1 202.5 L1498.6 182.7 L1499.1 182.1 L1496.7 182.8 L1492.7 183.8 L1487.5 185.0 L1481.4 186.1 L1474.9 187.0 L1468.5 187.4 L1462.7 187.3 L1458.0 186.7 L1455.0 185.9 L1453.9 185.5 L1454.0 186.1 L1453.9 186.6 L1454.1 185.4 L1455.7 182.4 L1458.7 178.6 L1463.0 174.4 L1468.2 170.3 L1473.8 166.6 L1479.3 163.5 L1484.3 161.1 L1488.3 159.5 L1490.9 158.7 L1490.8 158.9 L1482.9 137.4 L1482.6 137.3 L1480.0 138.0 L1475.7 139.1 L1470.4 140.3 L1464.2 141.3 L1457.8 142.1 L1451.5 142.5 L1445.9 142.3 L1441.5 141.7 L1439.0 140.9 L1438.3 140.8 L1438.6 141.8 L1438.5 142.3 L1438.9 140.9 L1440.6 137.9 L1443.8 134.0 L1448.2 129.9 L1453.5 125.9 L1459.1 122.3 L1464.5 119.2 L1469.3 117.0 L1473.1 115.5 L1464.7 93.7 L1463.6 93.8 L1459.9 95.4 L1455.6 97.1 L1450.9 99.1 L1445.7 101.2 L1440.1 103.5 L1434.2 105.9 L1427.9 108.5 L1421.4 111.1 L1414.6 113.9 L1407.7 116.8 L1400.5 119.7 L1393.3 122.7 L1385.9 125.7 L1378.6 128.7 L1371.2 131.7 L1363.8 134.7 L1356.6 137.7 L1349.4 140.6 L1342.4 143.5 L1335.6 146.3 L1329.1 149.0 L1322.8 151.6 L1316.8 154.1 L1311.1 156.4 L1305.9 158.6 L1301.1 160.5 L1296.7 162.3 L1292.9 163.9 L1289.6 165.3 L1285.8 167.7 L1280.7 173.0 L1277.7 181.8 L1277.0 190.4 L1277.5 199.6 L1278.7 209.0 L1280.2 218.3 L1281.8 226.8 L1283.1 233.8 L1283.8 238.2 L1284.5 237.6 L1294.4 230.5 L1299.9 232.1 L1297.9 230.5 L1293.8 226.1 L1288.6 220.0 L1282.8 213.0 L1276.7 205.8 L1270.5 199.0 L1264.3 193.1 L1257.3 188.5 L1247.3 186.5 L1236.5 192.3 L1232.3 201.1 L1231.1 209.5 L1231.3 218.4 L1232.3 227.7 L1233.8 237.2 L1235.4 246.0 L1236.8 253.5 L1237.7 258.8 L1238.2 260.3 L1243.7 253.8 L1252.7 254.0 L1251.6 253.3 L1247.9 249.5 L1243.0 243.8 L1237.3 237.0 L1231.3 229.8 L1225.2 222.9 L1219.0 216.7 L1212.5 211.8 L1204.0 208.7 L1192.8 212.0 L1187.0 220.4 L1185.4 228.7 L1185.2 237.3 L1186.0 246.5 L1187.4 255.9 L1189.0 265.0 L1190.5 272.9 L1191.6 279.0 L1192.1 282.0 L1194.3 278.3 L1204.9 275.6 L1205.2 275.9 L1202.0 272.8 L1197.3 267.6 L1191.8 261.0 L1185.9 253.8 L1179.8 246.8 L1173.7 240.4 L1167.4 235.2 L1160.0 231.5 L1149.4 232.3 L1142.0 239.8 L1139.7 247.9 L1139.2 256.3 L1139.8 265.3 L1141.0 274.7 L1142.6 283.9 L1144.2 292.3 L1145.4 299.0 L1146.1 303.2 L1146.8 302.2 L1156.1 297.3 L1158.7 298.3 L1156.0 296.0 L1151.6 291.2 L1146.3 285.0 L1140.5 277.9 L1134.4 270.8 L1128.3 264.2 L1122.2 258.7 L1115.5 254.5 L1106.2 253.4 L1097.4 259.4 L1094.1 267.3 L1093.3 275.4 L1093.6 284.1 L1094.7 293.4 L1096.2 302.8 L1097.8 311.4 L1099.2 318.7 L1100.0 323.8 L1100.4 325.0 L1106.4 319.7 L1111.8 320.5 L1109.8 319.0 L1105.8 314.8 L1100.7 308.8 L1095.0 301.9 L1089.0 294.8 L1082.9 288.0 L1076.9 282.2 L1070.7 277.7 L1062.6 275.4 L1053.1 279.2 L1048.8 286.8 L1047.5 294.6 L1047.5 303.1 L1048.4 312.2 L1049.8 321.6 L1051.4 330.5 L1052.9 338.3 L1053.9 344.1 L1054.3 346.9 L1057.0 343.3 L1064.6 342.4 L1063.6 341.8 L1059.9 338.2 L1055.1 332.7 L1049.5 326.0 L1043.6 318.8 L1037.5 311.9 L1031.5 305.8 L1025.5 301.0 L1018.5 297.9 L1009.2 299.5 L1003.6 306.4 L1001.7 313.9 L1001.5 322.1 L1002.1 331.0 L1003.4 340.3 L1005.0 349.4 L1006.5 357.6 L1007.7 364.2 L1008.3 368.1 L1009.3 367.0 L1016.8 364.2 L1017.2 364.4 L1014.0 361.5 L1009.4 356.4 L1004.0 349.9 L998.1 342.8 L992.1 335.8 L986.1 329.5 L980.3 324.3 L973.9 320.7 L968.4 320.0 Z" fill="#C4443C" opacity="0.8"/>
<path d="M968.1 327.8 L971.6 327.9 L976.0 330.3 L981.2 334.7 L986.9 340.6 L992.8 347.3 L998.5 354.4 L1003.8 361.0 L1008.5 366.4 L1012.2 370.2 L1014.8 371.9 L1016.4 371.3 L1017.0 368.3 L1016.6 363.2 L1015.6 356.2 L1014.2 347.9 L1012.7 338.9 L1011.5 329.9 L1010.8 321.7 L1010.8 314.7 L1011.9 309.6 L1014.0 306.7 L1017.1 306.1 L1021.3 307.9 L1026.3 311.7 L1031.9 317.2 L1037.7 323.8 L1043.5 330.8 L1049.0 337.6 L1053.9 343.5 L1057.9 347.8 L1060.8 350.1 L1062.7 350.2 L1063.5 347.9 L1063.4 343.3 L1062.6 336.8 L1061.3 328.8 L1059.8 320.0 L1058.4 310.9 L1057.5 302.4 L1057.3 295.0 L1058.1 289.3 L1059.9 285.7 L1062.7 284.5 L1066.6 285.6 L1071.4 288.9 L1076.9 294.0 L1082.7 300.3 L1088.5 307.3 L1094.1 314.2 L1099.2 320.4 L1103.4 325.2 L1106.7 328.1 L1108.9 328.9 L1110.0 327.2 L1110.2 323.3 L1109.5 317.3 L1108.3 309.7 L1106.8 301.0 L1105.4 291.9 L1104.3 283.2 L1103.9 275.4 L1104.4 269.2 L1105.9 265.0 L1108.4 263.1 L1112.1 263.5 L1116.6 266.2 L1121.9 270.8 L1127.6 276.9 L1133.5 283.7 L1139.2 290.7 L1144.4 297.2 L1148.9 302.4 L1152.5 306.0 L1155.0 307.4 L1156.5 306.4 L1156.9 303.1 L1156.4 297.7 L1155.3 290.5 L1153.9 282.0 L1152.4 273.0 L1151.2 264.1 L1150.6 256.0 L1150.8 249.2 L1152.0 244.4 L1154.2 241.8 L1157.6 241.6 L1161.9 243.7 L1166.9 247.8 L1172.6 253.5 L1178.4 260.2 L1184.2 267.2 L1189.6 273.9 L1194.4 279.6 L1198.2 283.6 L1201.0 285.6 L1202.8 285.4 L1203.5 282.7 L1203.2 277.9 L1202.3 271.1 L1200.9 263.0 L1199.5 254.0 L1198.1 245.0 L1197.3 236.6 L1197.3 229.4 L1198.2 224.0 L1200.1 220.8 L1203.1 219.9 L1207.2 221.3 L1212.1 224.9 L1217.6 230.2 L1223.4 236.6 L1229.2 243.7 L1234.8 250.5 L1239.7 256.5 L1243.9 261.1 L1247.0 263.8 L1249.0 264.2 L1250.0 262.2 L1250.0 257.9 L1249.3 251.7 L1248.0 243.9 L1246.5 235.1 L1245.1 226.0 L1244.1 217.4 L1243.8 209.8 L1244.4 203.8 L1246.1 199.9 L1248.8 198.4 L1252.5 199.1 L1257.2 202.1 L1262.6 207.0 L1268.3 213.2 L1274.2 220.1 L1279.9 227.1 L1285.0 233.4 L1289.4 238.4 L1292.8 241.7 L1295.2 242.7 L1296.5 241.4 L1296.7 237.8 L1296.2 232.1 L1295.0 224.7 L1293.6 216.1 L1292.1 207.1 L1291.0 198.2 L1290.5 190.3 L1290.8 183.8 L1292.1 179.3 L1294.5 177.0 L1294.5 177.0 L1297.8 175.6 L1301.6 174.0 L1306.0 172.2 L1310.8 170.2 L1316.0 168.0 L1321.6 165.7 L1327.6 163.2 L1333.9 160.6 L1340.4 157.9 L1347.2 155.1 L1354.2 152.2 L1361.3 149.2 L1368.6 146.2 L1375.9 143.2 L1383.3 140.1 L1390.7 137.1 L1398.0 134.0 L1405.2 131.0 L1412.3 128.1 L1419.3 125.2 L1426.0 122.4 L1432.6 119.7 L1438.8 117.1 L1444.7 114.7 L1450.3 112.3 L1455.5 110.2 L1460.2 108.2 L1464.5 106.5 L1468.2 104.9 L1471.4 103.6 L1468.5 104.7 L1464.2 106.7 L1459.0 109.4 L1453.1 112.9 L1447.1 117.0 L1441.2 121.6 L1436.0 126.5 L1431.7 131.5 L1428.8 136.3 L1427.4 140.9 L1427.7 145.0 L1429.7 148.5 L1433.3 151.3 L1438.3 153.2 L1444.5 154.4 L1451.4 154.8 L1458.7 154.5 L1466.0 153.7 L1472.8 152.5 L1478.8 151.1 L1483.6 149.7 L1486.9 148.5 L1488.6 147.8 L1488.7 147.6 L1487.0 148.1 L1483.8 149.3 L1479.4 151.4 L1474.1 154.3 L1468.1 157.9 L1462.1 162.1 L1456.3 166.7 L1451.2 171.6 L1447.1 176.6 L1444.5 181.5 L1443.4 186.0 L1443.9 190.0 L1446.2 193.4 L1450.0 196.0 L1455.3 197.8 L1461.6 198.8 L1468.6 199.1 L1475.9 198.7 L1483.2 197.8 L1489.9 196.6 L1495.7 195.2 L1500.3 193.8 L1503.3 192.7 L1504.8 192.0 L1504.5 191.9 L1502.6 192.6 L1499.2 194.0 L1494.6 196.2 L1489.1 199.2 L1483.1 202.9 L1477.1 207.2 L1471.4 211.9 L1466.4 216.8 L1462.6 221.8 L1460.2 226.6 L1459.3 231.0 L1460.2 234.9 L1462.7 238.2 L1466.8 240.7 L1472.2 242.4 L1478.7 243.3 L1485.8 243.4 L1493.2 242.9 L1500.4 242.0 L1507.0 240.7 L1512.6 239.3 L1516.9 237.9 L1519.7 236.9 L1520.8 236.3 L1520.3 236.3 L1518.1 237.1 L1514.5 238.6 L1509.7 241.0 L1504.1 244.1 L1498.1 247.9 L1492.1 252.3 L1486.5 257.0 L1481.7 262.0 L1478.1 266.9 L1475.9 271.7 L1475.4 276.1 L1476.5 279.9 L1479.3 283.0 L1483.6 285.4 L1489.3 286.9 L1495.8 287.7 L1503.0 287.7 L1510.4 287.1 L1517.5 286.1 L1524.0 284.8 L1529.4 283.4 L1533.5 282.1 L1536.0 281.1 L1536.9 280.6 L1536.0 280.7 L1533.6 281.6 L1529.8 283.3 L1524.8 285.8 L1519.1 289.0 L1513.1 292.9 L1507.1 297.4 L1501.6 302.2 L1497.0 307.1 L1493.6 312.1 L1491.7 316.8 L1491.4 321.1 L1492.9 324.8 L1495.9 327.8 L1500.5 330.0 L1506.3 331.4 L1513.0 332.1 L1520.3 332.0 L1527.6 331.3 L1534.6 330.2 L1541.0 328.9 L1546.2 327.5 L1550.0 326.2 L1552.3 325.3 L1552.8 324.9 L1551.7 325.2 L1549.1 326.2 L1545.0 328.0 L1539.9 330.6 L1534.1 334.0 L1528.1 338.0 L1522.1 342.5 L1516.8 347.3 L1512.3 352.3 L1509.2 357.2 L1507.5 361.9 L1507.6 366.1 L1509.3 369.7 L1512.6 372.5 L1517.4 374.6 L1523.4 375.9 L1530.2 376.4 L1537.5 376.3 L1544.8 375.5 L1551.8 374.3 L1557.9 373.0 L1562.9 371.6 L1566.5 370.4 L1568.5 369.5 L1568.8 369.2 L1567.4 369.6 L1567.4 369.6 L1569.9 368.4 L1572.8 367.1 L1576.2 365.5 L1579.9 363.8 L1584.0 362.0 L1588.3 360.0 L1593.0 357.8 L1597.9 355.6 L1603.0 353.2 L1608.3 350.8 L1613.7 348.3 L1619.3 345.7 L1625.0 343.1 L1630.7 340.5 L1636.5 337.8 L1642.3 335.2 L1648.0 332.5 L1653.7 329.9 L1659.3 327.4 L1664.7 324.9 L1670.1 322.4 L1675.2 320.1 L1680.1 317.8 L1684.8 315.7 L1689.2 313.7 L1693.3 311.8 L1697.0 310.1 L1700.4 308.6 L1703.4 307.2 L1705.9 306.1 L1707.1 306.6 L1709.4 309.0 L1712.8 312.8 L1717.2 317.8 L1722.4 323.4 L1728.2 329.2 L1734.3 334.6 L1740.3 339.2 L1746.1 342.5 L1751.2 344.3 L1755.5 344.2 L1758.7 342.2 L1760.9 338.5 L1761.8 333.1 L1761.8 326.3 L1760.8 318.7 L1759.1 310.7 L1757.0 302.8 L1754.8 295.6 L1752.7 289.4 L1751.1 284.6 L1750.3 281.6 L1750.5 280.4 L1751.7 281.2 L1754.1 283.6 L1757.6 287.6 L1762.0 292.6 L1767.3 298.2 L1773.1 304.0 L1779.2 309.4 L1785.3 313.9 L1791.0 317.1 L1796.1 318.7 L1800.3 318.5 L1803.4 316.4 L1805.5 312.5 L1806.4 307.0 L1806.2 300.2 L1805.2 292.5 L1803.4 284.5 L1801.3 276.6 L1799.1 269.4 L1797.1 263.3 L1795.5 258.7 L1794.8 255.8 L1795.0 254.8 L1796.3 255.7 L1798.8 258.3 L1802.4 262.3 L1806.9 267.4 L1812.2 273.1 L1818.1 278.8 L1824.2 284.2 L1830.2 288.6 L1835.9 291.7 L1840.9 293.2 L1845.0 292.8 L1848.1 290.6 L1850.1 286.5 L1850.9 280.9 L1850.7 274.0 L1849.5 266.3 L1847.8 258.3 L1845.6 250.5 L1843.4 243.3 L1841.4 237.3 L1840.0 232.8 L1839.3 230.1 L1839.6 229.2 L1841.0 230.2 L1843.5 232.9 L1847.2 237.1 L1851.8 242.2 L1857.2 247.9 L1863.0 253.7 L1869.2 258.9 L1875.2 263.3 L1880.8 266.3 L1885.7 267.6 L1889.8 267.1 L1892.8 264.7 L1894.7 260.5 L1895.4 254.8 L1895.1 247.8 L1893.9 240.1 L1892.1 232.1 L1889.9 224.3 L1887.7 217.2 L1885.8 211.3 L1884.4 207.0 L1883.8 204.4 L1884.1 203.6 L1885.6 204.8 L1888.3 207.6 L1892.0 211.8 L1896.7 217.0 L1902.1 222.8 L1908.0 228.5 L1914.1 233.7 L1920.1 238.0 L1925.7 240.9 L1930.6 242.1 L1934.6 241.4 L1937.5 238.9 L1939.2 234.6 L1939.9 228.7 L1939.5 221.7 L1938.3 213.9 L1936.4 205.9 L1934.3 198.1 L1932.1 191.1 L1930.1 185.3 L1928.8 181.1 L1928.2 178.6 L1928.7 178.1 L1930.3 179.4 L1933.0 182.3 L1936.8 186.6 L1941.5 191.9 L1947.0 197.6 L1953.0 203.3 L1959.1 208.5 L1965.1 212.7 L1970.6 215.4 L1975.4 216.5 L1979.3 215.7 L1982.1 213.0 L1983.8 208.6 L1984.4 202.6 L1984.0 195.5 L1982.7 187.7 L1980.8 179.7 L1978.6 171.9 L1976.4 165.0 L1974.5 159.3 L1973.2 155.2 L1972.7 152.9 L1973.3 152.5 L1974.9 153.9 L1977.7 157.0 L1981.6 161.4 L1986.4 166.7 L1992.0 172.5 L1997.9 178.1 L2004.0 183.3 L2010.0 187.3 L2015.5 190.0 L2020.2 190.9 L2024.1 189.9" fill="none" stroke="#171310" stroke-width="1.1" opacity="0.5"/>
</svg>